<svg width="12" height="8" viewBox="0 0 12 8" xmlns="http://www.w3.org/2000/svg">
<path id="Vector" d="M6.46824 7.33309L11.8083 1.99294C11.9319 1.86943 12 1.70455 12 1.52875C12 1.35294 11.9319 1.18807 11.8083 1.06456L11.4151 0.671291C11.1589 0.41539 10.7425 0.41539 10.4867 0.671291L6.00249 5.15555L1.51326 0.666315C1.38965 0.542804 1.22487 0.474609 1.04916 0.474609C0.873261 0.474609 0.708482 0.542804 0.584775 0.666315L0.191706 1.05958C0.0680971 1.18319 0 1.34797 0 1.52377C0 1.69957 0.0680971 1.86445 0.191706 1.98796L5.53664 7.33309C5.66064 7.45689 5.8262 7.52489 6.00219 7.5245C6.17888 7.52489 6.34434 7.45689 6.46824 7.33309Z" fill="currentColor"/>
</svg>
