<svg width="22" height="20" viewBox="0 0 22 20" fill="none" xmlns="http://www.w3.org/2000/svg">
<path d="M7.54992 19.08C8.40592 19.08 9.09984 18.3905 9.09984 17.54C9.09984 16.6895 8.40592 16 7.54992 16C6.69392 16 6 16.6895 6 17.54C6 18.3905 6.69392 19.08 7.54992 19.08Z" fill="currentColor"/>
<path d="M13.7491 19.08C14.6051 19.08 15.2991 18.3905 15.2991 17.54C15.2991 16.6895 14.6051 16 13.7491 16C12.8931 16 12.1992 16.6895 12.1992 17.54C12.1992 18.3905 12.8931 19.08 13.7491 19.08Z" fill="currentColor"/>
<path d="M1 1H1.90746C2.84792 1 3.66132 1.65522 3.86159 2.5741L6.00878 12.4259C6.20905 13.3448 7.02245 14 7.9629 14H14.2036C15.1357 14 15.9442 13.3561 16.1528 12.4477L17.4378 6.85244C17.7256 5.59975 16.7739 4.40476 15.4886 4.40476H6.66667" stroke="currentColor" stroke-width="2" stroke-linecap="round"/>
<rect x="8" y="7" width="6" height="5" rx="1" fill="var(--color2)"/>
</svg>
