<svg width="74" height="52" viewBox="0 0 74 52" xmlns="http://www.w3.org/2000/svg">
<rect x="30" y="4" width="42" height="33" fill="#E31E24"/>

<rect x="29.5" y="3.5" width="42.2941" height="33.2353" rx="2.5" stroke="currentColor" stroke-width="3" fill="none"/>
<path d="M29.8125 4.7168L49.3354 21.6933C50.088 22.3476 51.2076 22.3476 51.9602 21.6933L71.4831 4.7168" stroke="currentColor" stroke-width="3" fill="none"/>

<path d="M17.3623 2.12109C12.7715 1.97476 9.30024 1.95178 4.84672 2.10468C3.95966 2.13513 3.19797 2.75311 3.00885 3.62031C0.124836 16.845 3.60058 27.375 11.1843 35.8552C18.8208 44.3944 28.6717 51.5486 47.7803 49.7091C48.7617 49.6146 49.5107 48.797 49.5442 47.8115L49.9442 36.0344C49.9766 35.0791 49.3286 34.2344 48.3975 34.0183L36.5657 31.2723C35.7723 31.0881 34.9462 31.4027 34.4951 32.0809C33.7563 33.1916 32.69 34.8705 32.3068 35.8552C31.7159 37.3738 18.4537 32.3219 15.8391 21.7236C15.6845 21.097 15.8909 20.4389 16.3638 19.9997C19.7188 16.8838 23.0242 15.7337 23.4604 14.3644C23.8379 13.1793 20.4135 5.9699 19.0733 3.2227C18.7524 2.56486 18.0939 2.14441 17.3623 2.12109Z" fill="#E31E24" stroke="currentColor" stroke-width="3"/>
</svg>
