<svg width="24" height="24" viewBox="0 0 24 24" fill="none" xmlns="http://www.w3.org/2000/svg">
<path d="M10.976 23.9999C11.9098 23.9999 12.6668 23.2477 12.6668 22.3199C12.6668 21.3921 11.9098 20.6399 10.976 20.6399C10.0422 20.6399 9.28516 21.3921 9.28516 22.3199C9.28516 23.2477 10.0422 23.9999 10.976 23.9999Z" fill="#E31E24"/>
<path d="M17.7377 23.9999C18.6715 23.9999 19.4285 23.2477 19.4285 22.3199C19.4285 21.3921 18.6715 20.6399 17.7377 20.6399C16.8039 20.6399 16.0469 21.3921 16.0469 22.3199C16.0469 23.2477 16.8039 23.9999 17.7377 23.9999Z" fill="#E31E24"/>
<path d="M1.19922 1.19995H2.78239C3.72546 1.19995 4.54039 1.85875 4.73799 2.78089L7.66045 16.419C7.85805 17.3411 8.67297 18 9.61605 18H18.4005C19.3353 18 20.1455 17.3524 20.3514 16.4405L22.2481 8.04047C22.5306 6.78967 21.5795 5.59995 20.2973 5.59995H8.39922" stroke="currentColor" stroke-width="2" stroke-linecap="round"/>
</svg>
