<svg width="12" height="9" viewBox="0 0 12 9" xmlns="http://www.w3.org/2000/svg">
<path d="M5.31409 8.62328L11.63 2.19459C12.1233 1.69251 12.1233 0.878641 11.63 0.37656C11.1374 -0.12552 10.3365 -0.12552 9.84389 0.37656L5.31409 8.62328ZM5.31409 8.62328C5.06776 8.87464 4.74439 9 4.42101 9C4.09763 9 3.77426 8.87464 3.52794 8.62328L0.369957 5.40894C-0.123319 4.90685 -0.123319 4.09298 0.369957 3.5909C0.862602 3.08882 1.66346 3.08882 2.15611 3.5909L5.31409 8.62328ZM11.2732 0.726744L11.2734 0.726973C11.5755 1.03453 11.5755 1.53662 11.2734 1.84418L4.95742 8.27287L4.95697 8.27332C4.80787 8.42548 4.61463 8.5 4.42101 8.5C4.22739 8.5 4.03416 8.42548 3.88505 8.27332L3.8846 8.27287L0.726624 5.05852C0.424459 4.75096 0.424459 4.24887 0.726624 3.94132L0.726848 3.94109C1.02349 3.63876 1.50257 3.63876 1.79922 3.94109L1.79949 3.94137L4.06439 6.24605L4.42104 6.60896L4.77766 6.24602L10.2005 0.726994L10.2008 0.726744C10.4974 0.424419 10.9765 0.424418 11.2732 0.726744Z" fill="currentColor" stroke="currentColor"/>
</svg>
