<svg width="19" height="27" viewBox="0 0 19 27" xmlns="http://www.w3.org/2000/svg">
<path d="M9.5 1C4.81313 1 1 4.74238 1 9.34229C1 15.1239 9.50836 25 9.50836 25C9.50836 25 18 14.8396 18 9.34229C18 4.74238 14.187 1 9.5 1ZM12.0646 11.7849C11.3575 12.4788 10.4288 12.8258 9.5 12.8258C8.57134 12.8258 7.64239 12.4788 6.93552 11.7849C5.52134 10.3971 5.52134 8.13892 6.93552 6.75098C7.6203 6.07861 8.53119 5.7083 9.5 5.7083C10.4688 5.7083 11.3796 6.07876 12.0646 6.75098C13.4788 8.13892 13.4788 10.3971 12.0646 11.7849Z" stroke="currentColor" stroke-width="2" fill="none"/>
</svg>
