<svg width="24" height="24" viewBox="0 0 24 24" fill="none" xmlns="http://www.w3.org/2000/svg">
<path d="M11.9992 14.4C14.6502 14.4 16.7992 12.251 16.7992 9.60005C16.7992 6.94908 14.6502 4.80005 11.9992 4.80005C9.34825 4.80005 7.19922 6.94908 7.19922 9.60005C7.19922 12.251 9.34825 14.4 11.9992 14.4Z" stroke="currentColor" stroke-width="2" stroke-linecap="round" stroke-linejoin="round"/>
<path d="M4.80078 20C5.55323 18.7785 6.61074 17.769 7.87167 17.0685C9.13259 16.3679 10.5545 16 12.0008 16C13.447 16 14.869 16.3679 16.1299 17.0685C17.3908 17.769 18.4483 18.7785 19.2008 20" stroke="#E31E24" stroke-width="2" stroke-linecap="round" stroke-linejoin="round"/>
<path d="M12 23C18.0751 23 23 18.0751 23 12C23 5.92487 18.0751 1 12 1C5.92487 1 1 5.92487 1 12C1 18.0751 5.92487 23 12 23Z" stroke="currentColor" stroke-width="2" stroke-linecap="round" stroke-linejoin="round"/>
</svg>
