<svg width="23" height="23" viewBox="0 0 23 23" xmlns="http://www.w3.org/2000/svg">
<path d="M6.04096 18.9681L6.87356 19.4545C8.27764 20.2734 9.87459 20.7033 11.5 20.7C13.3196 20.7 15.0983 20.1604 16.6112 19.1495C18.1242 18.1386 19.3034 16.7018 19.9997 15.0207C20.696 13.3396 20.8782 11.4898 20.5232 9.70516C20.1682 7.92054 19.292 6.28126 18.0054 4.99461C16.7187 3.70797 15.0795 2.83176 13.2948 2.47677C11.5102 2.12179 9.6604 2.30398 7.97932 3.00031C6.29824 3.69663 4.8614 4.87582 3.85049 6.38875C2.83958 7.90168 2.30001 9.68041 2.30001 11.5C2.30001 13.1514 2.73356 14.7349 3.54661 16.1276L4.03191 16.9602L3.28096 19.7213L6.04096 18.9681ZM0.00461539 23L1.55941 17.2868C0.534924 15.5306 -0.00332423 13.5332 1.54471e-05 11.5C1.54471e-05 5.14855 5.14856 0 11.5 0C17.8515 0 23 5.14855 23 11.5C23 17.8514 17.8515 23 11.5 23C9.4677 23.0033 7.47117 22.4654 5.71551 21.4417L0.00461539 23ZM7.34966 6.1042C7.50376 6.0927 7.65901 6.0927 7.81311 6.0996C7.87521 6.1042 7.93731 6.1111 7.99941 6.118C8.18226 6.1387 8.38351 6.25025 8.45136 6.40435C8.79406 7.18175 9.12756 7.9649 9.44956 8.75034C9.52086 8.92514 9.47831 9.14939 9.34261 9.36789C9.24928 9.51564 9.14833 9.65844 9.04016 9.79569C8.91021 9.96244 8.63076 10.2683 8.63076 10.2683C8.63076 10.2683 8.51691 10.404 8.56061 10.5731C8.57671 10.6375 8.62961 10.7306 8.67791 10.8088L8.74576 10.9181C9.04016 11.4091 9.43576 11.9071 9.91876 12.3763C10.0568 12.5097 10.1913 12.6465 10.3362 12.7742C10.8744 13.2491 11.4839 13.6367 12.1417 13.9242L12.1475 13.9265C12.2452 13.969 12.2947 13.992 12.4373 14.053C12.5086 14.0829 12.5822 14.1093 12.6569 14.1289C12.7342 14.1486 12.8155 14.1449 12.8906 14.1182C12.9658 14.0916 13.0313 14.0433 13.079 13.9794C13.9116 12.9708 13.9875 12.9053 13.9944 12.9053V12.9076C14.0522 12.8536 14.1209 12.8127 14.1959 12.7875C14.2709 12.7623 14.3504 12.7535 14.4291 12.7615C14.4981 12.7661 14.5682 12.7788 14.6326 12.8075C15.2433 13.087 16.2426 13.5228 16.2426 13.5228L16.9119 13.823C17.0246 13.877 17.127 14.0047 17.1304 14.1277C17.135 14.2048 17.1419 14.329 17.1155 14.5567C17.0787 14.8545 16.989 15.2122 16.8993 15.3996C16.8378 15.5276 16.7563 15.6448 16.6578 15.7469C16.5417 15.8688 16.4147 15.9796 16.2783 16.0781C16.2311 16.1136 16.1831 16.1481 16.1345 16.1816C15.9915 16.2724 15.8445 16.3568 15.6941 16.4346C15.398 16.5919 15.0709 16.6822 14.7361 16.6991C14.5234 16.7106 14.3106 16.7267 14.0967 16.7152C14.0875 16.7152 13.4435 16.6152 13.4435 16.6152C11.8085 16.1851 10.2964 15.3795 9.02751 14.2623C8.76761 14.0334 8.52726 13.7873 8.28116 13.5424C7.25766 12.5246 6.48486 11.4264 6.01566 10.3891C5.77551 9.87998 5.64578 9.32581 5.63501 8.76299C5.63027 8.06477 5.85851 7.38491 6.28361 6.831C6.36756 6.7229 6.44691 6.6102 6.58376 6.48025C6.72981 6.34225 6.82181 6.26865 6.92186 6.21805C7.05489 6.15138 7.2 6.11227 7.34851 6.10305L7.34966 6.1042Z" fill="currentColor"/>
</svg>
