<svg width="23" height="22" viewBox="0 0 23 22" xmlns="http://www.w3.org/2000/svg">
<circle cx="9.69231" cy="9.69231" r="8.69231" stroke="currentColor" stroke-width="2" fill="none"/>
<line x1="16.7071" y1="16.0995" x2="21.7071" y2="21.0995" stroke="currentColor" stroke-width="2" fill="none"/>
<path d="M14.498 8.75586H10.7432V4.99609C10.7432 4.44434 10.2988 4 9.74707 4C9.19531 4 8.75097 4.44434 8.75097 4.99609V8.75586H4.99609C4.44434 8.75586 4 9.2002 4 9.75195C4 10.3037 4.44434 10.748 4.99609 10.748H8.75097V14.5029C8.75097 15.0547 9.19531 15.499 9.74707 15.499C10.2988 15.499 10.7432 15.0547 10.7432 14.5029V10.748H14.498C15.0498 10.748 15.4941 10.3037 15.4941 9.75195C15.499 9.2002 15.0498 8.75586 14.498 8.75586Z" fill="currentColor"/>
</svg>
