<svg width="400" height="191" viewBox="0 0 400 191" fill="none" xmlns="http://www.w3.org/2000/svg">
<line y1="-0.5" x2="559.408" y2="-0.5" transform="matrix(-0.797601 0.603186 0.797601 0.603186 419.922 0.769531)" stroke="#8E8E8E"/>
<line y1="-0.5" x2="559.408" y2="-0.5" transform="matrix(-0.797601 0.603186 0.797601 0.603186 533.055 86.3281)" stroke="#8E8E8E"/>
<line y1="-0.5" x2="559.408" y2="-0.5" transform="matrix(-0.797601 0.603186 0.797601 0.603186 540.055 86.3242)" stroke="#8E8E8E"/>
<line y1="-0.5" x2="559.408" y2="-0.5" transform="matrix(-0.797601 0.603186 0.797601 0.603186 547.062 86.3281)" stroke="#8E8E8E"/>
<line y1="-0.5" x2="559.408" y2="-0.5" transform="matrix(-0.797601 0.603186 0.797601 0.603186 555.062 86.3242)" stroke="#8E8E8E"/>
<line y1="-0.5" x2="559.408" y2="-0.5" transform="matrix(-0.797601 0.603186 0.797601 0.603186 306.789 -84.7891)" stroke="#8E8E8E"/>
<line y1="-0.5" x2="559.408" y2="-0.5" transform="matrix(-0.797601 0.603186 0.797601 0.603186 363.359 -42.0078)" stroke="#8E8E8E"/>
<line y1="-0.5" x2="559.408" y2="-0.5" transform="matrix(-0.797601 0.603186 0.797601 0.603186 476.492 43.5469)" stroke="#8E8E8E"/>
<line y1="-0.5" x2="559.408" y2="-0.5" transform="matrix(-0.797601 0.603186 0.797601 0.603186 250.219 -127.566)" stroke="#8E8E8E"/>
<line y1="-0.5" x2="559.408" y2="-0.5" transform="matrix(-0.797601 0.603186 0.797601 0.603186 391.641 -20.6172)" stroke="#8E8E8E"/>
<line y1="-0.5" x2="559.408" y2="-0.5" transform="matrix(-0.797601 0.603186 0.797601 0.603186 504.781 64.9375)" stroke="#8E8E8E"/>
<line y1="-0.5" x2="559.408" y2="-0.5" transform="matrix(-0.797601 0.603186 0.797601 0.603186 278.508 -106.18)" stroke="#8E8E8E"/>
<line y1="-0.5" x2="559.408" y2="-0.5" transform="matrix(-0.797601 0.603186 0.797601 0.603186 335.07 -63.3984)" stroke="#8E8E8E"/>
<line y1="-0.5" x2="559.408" y2="-0.5" transform="matrix(-0.797601 0.603186 0.797601 0.603186 448.211 22.1562)" stroke="#8E8E8E"/>
<line y1="-0.5" x2="559.408" y2="-0.5" transform="matrix(-0.797601 0.603186 0.797601 0.603186 221.938 -148.957)" stroke="#8E8E8E"/>
<line y1="-0.5" x2="559.408" y2="-0.5" transform="matrix(-0.797601 0.603186 0.797601 0.603186 405.781 -9.92188)" stroke="#8E8E8E"/>
<line y1="-0.5" x2="559.408" y2="-0.5" transform="matrix(-0.797601 0.603186 0.797601 0.603186 518.922 75.6328)" stroke="#8E8E8E"/>
<line y1="-0.5" x2="559.408" y2="-0.5" transform="matrix(-0.797601 0.603186 0.797601 0.603186 292.648 -95.4844)" stroke="#8E8E8E"/>
<line y1="-0.5" x2="559.408" y2="-0.5" transform="matrix(-0.797601 0.603186 0.797601 0.603186 349.211 -52.7031)" stroke="#8E8E8E"/>
<line y1="-0.5" x2="559.408" y2="-0.5" transform="matrix(-0.797601 0.603186 0.797601 0.603186 462.352 32.8516)" stroke="#8E8E8E"/>
<line y1="-0.5" x2="559.408" y2="-0.5" transform="matrix(-0.797601 0.603186 0.797601 0.603186 236.078 -138.266)" stroke="#8E8E8E"/>
<line y1="-0.5" x2="559.408" y2="-0.5" transform="matrix(-0.797601 0.603186 0.797601 0.603186 377.5 -31.3125)" stroke="#8E8E8E"/>
<line y1="-0.5" x2="559.408" y2="-0.5" transform="matrix(-0.797601 0.603186 0.797601 0.603186 490.633 54.2422)" stroke="#8E8E8E"/>
<line y1="-0.5" x2="559.408" y2="-0.5" transform="matrix(-0.797601 0.603186 0.797601 0.603186 264.359 -116.875)" stroke="#8E8E8E"/>
<line y1="-0.5" x2="559.408" y2="-0.5" transform="matrix(-0.797601 0.603186 0.797601 0.603186 320.93 -74.0938)" stroke="#8E8E8E"/>
<line y1="-0.5" x2="559.408" y2="-0.5" transform="matrix(-0.797601 0.603186 0.797601 0.603186 434.07 11.4648)" stroke="#8E8E8E"/>
<line y1="-0.5" x2="559.408" y2="-0.5" transform="matrix(-0.797601 0.603186 0.797601 0.603186 207.797 -159.652)" stroke="#8E8E8E"/>
<line y1="-0.5" x2="559.408" y2="-0.5" transform="matrix(-0.797601 0.603186 0.797601 0.603186 412.852 -4.57812)" stroke="#8E8E8E"/>
<line y1="-0.5" x2="559.408" y2="-0.5" transform="matrix(-0.797601 0.603186 0.797601 0.603186 525.992 80.9805)" stroke="#8E8E8E"/>
<line y1="-0.5" x2="559.408" y2="-0.5" transform="matrix(-0.797601 0.603186 0.797601 0.603186 299.719 -90.1367)" stroke="#8E8E8E"/>
<line y1="-0.5" x2="559.408" y2="-0.5" transform="matrix(-0.797601 0.603186 0.797601 0.603186 356.289 -47.3555)" stroke="#8E8E8E"/>
<line y1="-0.5" x2="559.408" y2="-0.5" transform="matrix(-0.797601 0.603186 0.797601 0.603186 469.422 38.2031)" stroke="#8E8E8E"/>
<line y1="-0.5" x2="559.408" y2="-0.5" transform="matrix(-0.797601 0.603186 0.797601 0.603186 243.148 -132.914)" stroke="#8E8E8E"/>
<line y1="-0.5" x2="559.408" y2="-0.5" transform="matrix(-0.797601 0.603186 0.797601 0.603186 384.57 -25.9688)" stroke="#8E8E8E"/>
<line y1="-0.5" x2="559.408" y2="-0.5" transform="matrix(-0.797601 0.603186 0.797601 0.603186 497.711 59.5898)" stroke="#8E8E8E"/>
<line y1="-0.5" x2="559.408" y2="-0.5" transform="matrix(-0.797601 0.603186 0.797601 0.603186 271.43 -111.527)" stroke="#8E8E8E"/>
<line y1="-0.5" x2="559.408" y2="-0.5" transform="matrix(-0.797601 0.603186 0.797601 0.603186 328 -68.7461)" stroke="#8E8E8E"/>
<line y1="-0.5" x2="559.408" y2="-0.5" transform="matrix(-0.797601 0.603186 0.797601 0.603186 441.141 16.8125)" stroke="#8E8E8E"/>
<line y1="-0.5" x2="559.408" y2="-0.5" transform="matrix(-0.797601 0.603186 0.797601 0.603186 214.867 -154.305)" stroke="#8E8E8E"/>
<line y1="-0.5" x2="559.408" y2="-0.5" transform="matrix(-0.797601 0.603186 0.797601 0.603186 398.711 -15.2695)" stroke="#8E8E8E"/>
<line y1="-0.5" x2="559.408" y2="-0.5" transform="matrix(-0.797601 0.603186 0.797601 0.603186 511.852 70.2852)" stroke="#8E8E8E"/>
<line y1="-0.5" x2="559.408" y2="-0.5" transform="matrix(-0.797601 0.603186 0.797601 0.603186 285.578 -100.828)" stroke="#8E8E8E"/>
<line y1="-0.5" x2="559.408" y2="-0.5" transform="matrix(-0.797601 0.603186 0.797601 0.603186 342.141 -58.0508)" stroke="#8E8E8E"/>
<line y1="-0.5" x2="559.408" y2="-0.5" transform="matrix(-0.797601 0.603186 0.797601 0.603186 455.281 27.5039)" stroke="#8E8E8E"/>
<line y1="-0.5" x2="559.408" y2="-0.5" transform="matrix(-0.797601 0.603186 0.797601 0.603186 229.008 -143.609)" stroke="#8E8E8E"/>
<line y1="-0.5" x2="559.408" y2="-0.5" transform="matrix(-0.797601 0.603186 0.797601 0.603186 370.43 -36.6602)" stroke="#8E8E8E"/>
<line y1="-0.5" x2="559.408" y2="-0.5" transform="matrix(-0.797601 0.603186 0.797601 0.603186 483.562 48.8945)" stroke="#8E8E8E"/>
<line y1="-0.5" x2="559.408" y2="-0.5" transform="matrix(-0.797601 0.603186 0.797601 0.603186 257.289 -122.219)" stroke="#8E8E8E"/>
<line y1="-0.5" x2="559.408" y2="-0.5" transform="matrix(-0.797601 0.603186 0.797601 0.603186 313.859 -79.4414)" stroke="#8E8E8E"/>
<line y1="-0.5" x2="559.408" y2="-0.5" transform="matrix(-0.797601 0.603186 0.797601 0.603186 427 6.12109)" stroke="#8E8E8E"/>
<line y1="-0.5" x2="559.408" y2="-0.5" transform="matrix(-0.797601 0.603186 0.797601 0.603186 200.719 -165)" stroke="#8E8E8E"/>
<line y1="-0.5" x2="559.408" y2="-0.5" transform="matrix(-0.797601 0.603186 0.797601 0.603186 416.391 -1.90234)" stroke="#8E8E8E"/>
<line y1="-0.5" x2="559.408" y2="-0.5" transform="matrix(-0.797601 0.603186 0.797601 0.603186 529.523 83.6523)" stroke="#8E8E8E"/>
<line y1="-0.5" x2="559.408" y2="-0.5" transform="matrix(-0.797601 0.603186 0.797601 0.603186 303.25 -87.4609)" stroke="#8E8E8E"/>
<line y1="-0.5" x2="559.408" y2="-0.5" transform="matrix(-0.797601 0.603186 0.797601 0.603186 359.82 -44.6797)" stroke="#8E8E8E"/>
<line y1="-0.5" x2="559.408" y2="-0.5" transform="matrix(-0.797601 0.603186 0.797601 0.603186 472.961 40.875)" stroke="#8E8E8E"/>
<line y1="-0.5" x2="559.408" y2="-0.5" transform="matrix(-0.797601 0.603186 0.797601 0.603186 246.688 -130.242)" stroke="#8E8E8E"/>
<line y1="-0.5" x2="559.408" y2="-0.5" transform="matrix(-0.797601 0.603186 0.797601 0.603186 388.109 -23.293)" stroke="#8E8E8E"/>
<line y1="-0.5" x2="559.408" y2="-0.5" transform="matrix(-0.797601 0.603186 0.797601 0.603186 501.242 62.2656)" stroke="#8E8E8E"/>
<line y1="-0.5" x2="559.408" y2="-0.5" transform="matrix(-0.797601 0.603186 0.797601 0.603186 274.969 -108.852)" stroke="#8E8E8E"/>
<line y1="-0.5" x2="559.408" y2="-0.5" transform="matrix(-0.797601 0.603186 0.797601 0.603186 331.539 -66.0703)" stroke="#8E8E8E"/>
<line y1="-0.5" x2="559.408" y2="-0.5" transform="matrix(-0.797601 0.603186 0.797601 0.603186 444.672 19.4844)" stroke="#8E8E8E"/>
<line y1="-0.5" x2="559.408" y2="-0.5" transform="matrix(-0.797601 0.603186 0.797601 0.603186 218.398 -151.633)" stroke="#8E8E8E"/>
<line y1="-0.5" x2="559.408" y2="-0.5" transform="matrix(-0.797601 0.603186 0.797601 0.603186 402.25 -12.5977)" stroke="#8E8E8E"/>
<line y1="-0.5" x2="559.408" y2="-0.5" transform="matrix(-0.797601 0.603186 0.797601 0.603186 515.383 72.9609)" stroke="#8E8E8E"/>
<line y1="-0.5" x2="559.408" y2="-0.5" transform="matrix(-0.797601 0.603186 0.797601 0.603186 289.109 -98.1562)" stroke="#8E8E8E"/>
<line y1="-0.5" x2="559.408" y2="-0.5" transform="matrix(-0.797601 0.603186 0.797601 0.603186 345.68 -55.3789)" stroke="#8E8E8E"/>
<line y1="-0.5" x2="559.408" y2="-0.5" transform="matrix(-0.797601 0.603186 0.797601 0.603186 458.812 30.1797)" stroke="#8E8E8E"/>
<line y1="-0.5" x2="559.408" y2="-0.5" transform="matrix(-0.797601 0.603186 0.797601 0.603186 232.539 -140.938)" stroke="#8E8E8E"/>
<line y1="-0.5" x2="559.408" y2="-0.5" transform="matrix(-0.797601 0.603186 0.797601 0.603186 373.961 -33.9883)" stroke="#8E8E8E"/>
<line y1="-0.5" x2="559.408" y2="-0.5" transform="matrix(-0.797601 0.603186 0.797601 0.603186 487.102 51.5703)" stroke="#8E8E8E"/>
<line y1="-0.5" x2="559.408" y2="-0.5" transform="matrix(-0.797601 0.603186 0.797601 0.603186 260.828 -119.547)" stroke="#8E8E8E"/>
<line y1="-0.5" x2="559.408" y2="-0.5" transform="matrix(-0.797601 0.603186 0.797601 0.603186 317.398 -76.7656)" stroke="#8E8E8E"/>
<line y1="-0.5" x2="559.408" y2="-0.5" transform="matrix(-0.797601 0.603186 0.797601 0.603186 430.531 8.79297)" stroke="#8E8E8E"/>
<line y1="-0.5" x2="559.408" y2="-0.5" transform="matrix(-0.797601 0.603186 0.797601 0.603186 204.258 -162.328)" stroke="#8E8E8E"/>
<line y1="-0.5" x2="559.408" y2="-0.5" transform="matrix(-0.797601 0.603186 0.797601 0.603186 409.32 -7.25)" stroke="#8E8E8E"/>
<line y1="-0.5" x2="559.408" y2="-0.5" transform="matrix(-0.797601 0.603186 0.797601 0.603186 522.453 78.3086)" stroke="#8E8E8E"/>
<line y1="-0.5" x2="559.408" y2="-0.5" transform="matrix(-0.797601 0.603186 0.797601 0.603186 296.18 -92.8086)" stroke="#8E8E8E"/>
<line y1="-0.5" x2="559.408" y2="-0.5" transform="matrix(-0.797601 0.603186 0.797601 0.603186 352.75 -50.0273)" stroke="#8E8E8E"/>
<line y1="-0.5" x2="559.408" y2="-0.5" transform="matrix(-0.797601 0.603186 0.797601 0.603186 465.891 35.5273)" stroke="#8E8E8E"/>
<line y1="-0.5" x2="559.408" y2="-0.5" transform="matrix(-0.797601 0.603186 0.797601 0.603186 239.609 -135.59)" stroke="#8E8E8E"/>
<line y1="-0.5" x2="559.408" y2="-0.5" transform="matrix(-0.797601 0.603186 0.797601 0.603186 381.031 -28.6406)" stroke="#8E8E8E"/>
<line y1="-0.5" x2="559.408" y2="-0.5" transform="matrix(-0.797601 0.603186 0.797601 0.603186 494.172 56.918)" stroke="#8E8E8E"/>
<line y1="-0.5" x2="559.408" y2="-0.5" transform="matrix(-0.797601 0.603186 0.797601 0.603186 267.898 -114.199)" stroke="#8E8E8E"/>
<line y1="-0.5" x2="559.408" y2="-0.5" transform="matrix(-0.797601 0.603186 0.797601 0.603186 324.469 -71.418)" stroke="#8E8E8E"/>
<line y1="-0.5" x2="559.408" y2="-0.5" transform="matrix(-0.797601 0.603186 0.797601 0.603186 437.602 14.1367)" stroke="#8E8E8E"/>
<line y1="-0.5" x2="559.408" y2="-0.5" transform="matrix(-0.797601 0.603186 0.797601 0.603186 211.328 -156.98)" stroke="#8E8E8E"/>
<line y1="-0.5" x2="559.408" y2="-0.5" transform="matrix(-0.797601 0.603186 0.797601 0.603186 395.18 -17.9453)" stroke="#8E8E8E"/>
<line y1="-0.5" x2="559.408" y2="-0.5" transform="matrix(-0.797601 0.603186 0.797601 0.603186 508.312 67.6133)" stroke="#8E8E8E"/>
<line y1="-0.5" x2="559.408" y2="-0.5" transform="matrix(-0.797601 0.603186 0.797601 0.603186 282.039 -103.504)" stroke="#8E8E8E"/>
<line y1="-0.5" x2="559.408" y2="-0.5" transform="matrix(-0.797601 0.603186 0.797601 0.603186 338.609 -60.7266)" stroke="#8E8E8E"/>
<line y1="-0.5" x2="559.408" y2="-0.5" transform="matrix(-0.797601 0.603186 0.797601 0.603186 451.742 24.832)" stroke="#8E8E8E"/>
<line y1="-0.5" x2="559.408" y2="-0.5" transform="matrix(-0.797601 0.603186 0.797601 0.603186 225.469 -146.285)" stroke="#8E8E8E"/>
<line y1="-0.5" x2="559.408" y2="-0.5" transform="matrix(-0.797601 0.603186 0.797601 0.603186 366.891 -39.3359)" stroke="#8E8E8E"/>
<line y1="-0.5" x2="559.408" y2="-0.5" transform="matrix(-0.797601 0.603186 0.797601 0.603186 480.031 46.2227)" stroke="#8E8E8E"/>
<line y1="-0.5" x2="559.408" y2="-0.5" transform="matrix(-0.797601 0.603186 0.797601 0.603186 253.758 -124.895)" stroke="#8E8E8E"/>
<line y1="-0.5" x2="559.408" y2="-0.5" transform="matrix(-0.797601 0.603186 0.797601 0.603186 310.32 -82.1172)" stroke="#8E8E8E"/>
<line y1="-0.5" x2="559.408" y2="-0.5" transform="matrix(-0.797601 0.603186 0.797601 0.603186 423.461 3.44531)" stroke="#8E8E8E"/>
<line y1="-0.5" x2="559.408" y2="-0.5" transform="matrix(-0.797601 0.603186 0.797601 0.603186 197.188 -167.676)" stroke="#8E8E8E"/>
</svg>
