<svg width="106" height="106" viewBox="0 0 106 106" fill="none" xmlns="http://www.w3.org/2000/svg">
<path d="M30.4719 77.131V96.1431C30.4719 96.6954 30.9196 97.1431 31.4719 97.1431H75.2929C75.8452 97.1431 76.2929 96.6954 76.2929 96.1431V95.4869V75.5787C76.2929 74.7243 75.2908 74.2634 74.6421 74.8194L73.0644 76.1718C72.6965 76.4872 72.1554 76.4934 71.7803 76.1865L66.7548 72.0747C66.5045 71.8699 66.1705 71.7988 65.8585 71.8839L60.749 73.2774C60.4547 73.3577 60.2131 73.5679 60.093 73.8483L57.2306 80.5272C57.073 80.8949 56.7115 81.1333 56.3114 81.1333H48.8922C48.4457 81.1333 48.0533 80.8373 47.9306 80.408L46.0883 73.9598C45.9901 73.6162 45.716 73.3511 45.3693 73.2644L39.7218 71.8525C39.4556 71.786 39.1738 71.8317 38.9424 71.979L33.4779 75.4564C33.3174 75.5585 33.1312 75.6127 32.941 75.6127H31.9903C31.725 75.6127 31.4707 75.7181 31.2832 75.9056L30.7648 76.4239C30.5773 76.6115 30.4719 76.8658 30.4719 77.131Z" fill="#E31E24"/>
<path d="M8.54451 7.79289C8.15398 7.40237 7.52082 7.40237 7.1303 7.79289L0.766335 14.1569C0.37581 14.5474 0.37581 15.1805 0.766335 15.5711C1.15686 15.9616 1.79002 15.9616 2.18055 15.5711L7.8374 9.91421L13.4943 15.5711C13.8848 15.9616 14.5179 15.9616 14.9085 15.5711C15.299 15.1805 15.299 14.5474 14.9085 14.1569L8.54451 7.79289ZM7.8374 97.695H6.8374V98.695H7.8374V97.695ZM105.707 98.4021C106.098 98.0116 106.098 97.3784 105.707 96.9879L99.3432 90.624C98.9526 90.2334 98.3195 90.2334 97.929 90.624C97.5384 91.0145 97.5384 91.6477 97.929 92.0382L103.586 97.695L97.929 103.352C97.5384 103.742 97.5384 104.376 97.929 104.766C98.3195 105.157 98.9526 105.157 99.3432 104.766L105.707 98.4021ZM6.8374 8.5V97.695H8.8374V8.5L6.8374 8.5ZM7.8374 98.695H105V96.695H7.8374V98.695Z" fill="black"/>
<mask id="path-3-inside-1_7081_1189" fill="white">
<path d="M25.1242 70.2855C25.4596 69.8467 26.0872 69.7629 26.5259 70.0982L32.292 74.5055C32.7308 74.8409 32.8146 75.4685 32.4792 75.9073L16.975 96.1914C15.2814 98.4071 12.1124 98.8304 9.89671 97.1368C8.05032 95.7255 7.6976 93.0847 9.10889 91.2383L25.1242 70.2855Z"/>
</mask>
<path d="M25.1242 70.2855C25.4596 69.8467 26.0872 69.7629 26.5259 70.0982L32.292 74.5055C32.7308 74.8409 32.8146 75.4685 32.4792 75.9073L16.975 96.1914C15.2814 98.4071 12.1124 98.8304 9.89671 97.1368C8.05032 95.7255 7.6976 93.0847 9.10889 91.2383L25.1242 70.2855Z" stroke="black" stroke-width="4" mask="url(#path-3-inside-1_7081_1189)"/>
<path d="M42.0652 73.4045L42.0652 96.5911" stroke="black" stroke-width="2" stroke-linecap="round"/>
<path d="M42.0652 43.5933L42.0652 66.7798" stroke="black" stroke-width="2" stroke-linecap="round"/>
<path d="M29.9199 77.821L29.9199 96.5911" stroke="black" stroke-width="2" stroke-linecap="round"/>
<path d="M53.1064 82.2373L53.1064 96.5909" stroke="black" stroke-width="2" stroke-linecap="round"/>
<path d="M53.1064 25.9272L53.1064 68.988" stroke="black" stroke-width="2" stroke-linecap="round"/>
<path d="M65.2517 72.3003L65.2517 96.5909" stroke="black" stroke-width="2" stroke-linecap="round"/>
<path d="M65.2517 42.489L65.2517 66.7797" stroke="black" stroke-width="2" stroke-linecap="round"/>
<path d="M76.293 74.5085L76.293 96.591" stroke="black" stroke-width="2" stroke-linecap="round"/>
<mask id="path-12-inside-2_7081_1189" fill="white">
<path fill-rule="evenodd" clip-rule="evenodd" d="M52.5941 82.5362C54.4828 82.5362 56.3417 82.4085 58.1626 82.1612L60.5755 74.5714C62.5032 74.1255 64.3684 73.5164 66.1558 72.7596L72.4673 77.4066C75.6236 75.6543 78.5244 73.4974 81.0996 71.0061L78.6617 63.6621C79.9406 62.1879 81.0953 60.6031 82.1095 58.924L89.7137 58.9723C91.243 55.7226 92.358 52.2395 92.9909 48.5911L86.8853 44.2141C86.9673 43.2487 87.0091 42.2718 87.0091 41.2852C87.0091 40.2984 86.9672 39.3213 86.8852 38.3556L92.9117 34.0353C92.2327 30.3614 91.0639 26.8591 89.4754 23.5989L82.109 23.6457C81.0949 21.9668 79.9403 20.3821 78.6616 18.9081L80.9741 11.9416C78.3245 9.39994 75.3343 7.21065 72.0788 5.44907L66.1551 9.81063C64.368 9.05393 62.5031 8.44498 60.5758 7.99912L58.3285 0.930299C56.4547 0.668057 54.5402 0.532471 52.5941 0.532471C50.8283 0.532471 49.0887 0.644085 47.3818 0.860642L45.1123 7.99932C43.1851 8.44521 41.3204 9.05416 39.5334 9.81085L33.3988 5.29398C30.1865 6.99894 27.2279 9.11849 24.5944 11.5813L27.0268 18.9088C25.7484 20.3826 24.594 21.967 23.5799 23.6457L15.7142 23.5957C14.1706 26.7634 13.0231 30.1595 12.3361 33.7196L18.8037 38.3562C18.7217 39.3216 18.6799 40.2986 18.6799 41.2852C18.6799 42.2717 18.7217 43.2483 18.8036 44.2135L12.2537 48.9091C12.8955 52.4432 13.9904 55.8194 15.476 58.9754L23.5795 58.924C24.5935 60.6029 25.748 62.1874 27.0266 63.6614L24.4682 71.3687C27.0263 73.7813 29.8947 75.8684 33.0071 77.564L39.5327 72.7593C41.32 73.5162 43.185 74.1253 45.1126 74.5712L47.547 82.2286C49.2009 82.4316 50.8853 82.5362 52.5941 82.5362Z"/>
</mask>
<path d="M58.1626 82.1612L58.4317 84.143L59.6853 83.9728L60.0686 82.7671L58.1626 82.1612ZM60.5755 74.5714L60.1248 72.6229L59.0147 72.8797L58.6695 73.9655L60.5755 74.5714ZM66.1558 72.7596L67.3416 71.149L66.4246 70.4738L65.3759 70.9179L66.1558 72.7596ZM72.4673 77.4066L71.2814 79.0172L72.3154 79.7785L73.438 79.1552L72.4673 77.4066ZM81.0996 71.0061L82.4902 72.4436L83.3939 71.5693L82.9978 70.376L81.0996 71.0061ZM78.6617 63.6621L77.151 62.3515L76.4049 63.2116L76.7636 64.2922L78.6617 63.6621ZM82.1095 58.924L82.1222 56.924L80.9854 56.9168L80.3976 57.8899L82.1095 58.924ZM89.7137 58.9723L89.701 60.9722L90.9791 60.9803L91.5233 59.8239L89.7137 58.9723ZM92.9909 48.5911L94.9615 48.9329L95.176 47.6967L94.1562 46.9656L92.9909 48.5911ZM86.8853 44.2141L84.8925 44.0449L84.7963 45.1774L85.72 45.8396L86.8853 44.2141ZM86.8852 38.3556L85.72 36.7302L84.7962 37.3924L84.8924 38.5249L86.8852 38.3556ZM92.9117 34.0353L94.077 35.6608L95.1092 34.9208L94.8784 33.6718L92.9117 34.0353ZM89.4754 23.5989L91.2734 22.7229L90.7219 21.591L89.4627 21.599L89.4754 23.5989ZM82.109 23.6457L80.3971 24.6798L80.9849 25.6529L82.1217 25.6457L82.109 23.6457ZM78.6616 18.9081L76.7634 18.278L76.4047 19.3586L77.1508 20.2187L78.6616 18.9081ZM80.9741 11.9416L82.8723 12.5717L83.2703 11.3728L82.3586 10.4983L80.9741 11.9416ZM72.0788 5.44907L73.0306 3.69007L71.9147 3.08625L70.8929 3.83853L72.0788 5.44907ZM66.1551 9.81063L65.3753 11.6523L66.4239 12.0964L67.3409 11.4212L66.1551 9.81063ZM60.5758 7.99912L58.6698 8.60506L59.015 9.69086L60.125 9.94766L60.5758 7.99912ZM58.3285 0.930299L60.2345 0.324359L59.853 -0.87585L58.6057 -1.0504L58.3285 0.930299ZM47.3818 0.860642L47.1301 -1.12345L45.8628 -0.962676L45.4758 0.254702L47.3818 0.860642ZM45.1123 7.99932L45.5631 9.94785L46.6731 9.69103L47.0183 8.60526L45.1123 7.99932ZM39.5334 9.81085L38.3476 11.4214L39.2646 12.0966L40.3132 11.6525L39.5334 9.81085ZM33.3988 5.29398L34.5846 3.68344L33.5719 2.93782L32.4611 3.52739L33.3988 5.29398ZM24.5944 11.5813L23.2283 10.1205L22.2927 10.9956L22.6963 12.2114L24.5944 11.5813ZM27.0268 18.9088L28.5376 20.2194L29.2837 19.3593L28.925 18.2787L27.0268 18.9088ZM23.5799 23.6457L23.5672 25.6457L24.7041 25.6529L25.2919 24.6798L23.5799 23.6457ZM15.7142 23.5957L15.7269 21.5958L14.4679 21.5878L13.9163 22.7196L15.7142 23.5957ZM12.3361 33.7196L10.3723 33.3407L10.1295 34.5986L11.1708 35.3451L12.3361 33.7196ZM18.8037 38.3562L20.7965 38.5254L20.8927 37.3929L19.969 36.7307L18.8037 38.3562ZM18.8036 44.2135L19.9689 45.839L20.8926 45.1768L20.7965 44.0444L18.8036 44.2135ZM12.2537 48.9091L11.0884 47.2836L10.0597 48.0211L10.2859 49.2665L12.2537 48.9091ZM15.476 58.9754L13.6664 59.8272L14.2107 60.9835L15.4887 60.9754L15.476 58.9754ZM23.5795 58.924L25.2914 57.8899L24.7036 56.9168L23.5668 56.924L23.5795 58.924ZM27.0266 63.6614L28.9248 64.2915L29.2835 63.211L28.5374 62.3509L27.0266 63.6614ZM24.4682 71.3687L22.57 70.7386L22.1683 71.9489L23.096 72.8238L24.4682 71.3687ZM33.0071 77.564L32.0503 79.3203L33.168 79.9292L34.1929 79.1746L33.0071 77.564ZM39.5327 72.7593L40.3126 70.9176L39.2639 70.4736L38.3469 71.1488L39.5327 72.7593ZM45.1126 74.5712L47.0186 73.9653L46.6734 72.8795L45.5634 72.6227L45.1126 74.5712ZM47.547 82.2286L45.641 82.8345L46.0297 84.0574L47.3033 84.2137L47.547 82.2286ZM57.8935 80.1794C56.1616 80.4146 54.3926 80.5362 52.5941 80.5362V84.5362C54.5731 84.5362 56.5219 84.4024 58.4317 84.143L57.8935 80.1794ZM58.6695 73.9655L56.2566 81.5553L60.0686 82.7671L62.4815 75.1774L58.6695 73.9655ZM65.3759 70.9179C63.6939 71.6301 61.9387 72.2032 60.1248 72.6229L61.0263 76.52C63.0676 76.0477 65.0429 75.4027 66.9356 74.6012L65.3759 70.9179ZM73.6531 75.7961L67.3416 71.149L64.97 74.3701L71.2814 79.0172L73.6531 75.7961ZM79.709 69.5687C77.2585 71.9393 74.4987 73.9913 71.4965 75.658L73.438 79.1552C76.7486 77.3173 79.7903 75.0555 82.4902 72.4436L79.709 69.5687ZM76.7636 64.2922L79.2015 71.6362L82.9978 70.376L80.5599 63.032L76.7636 64.2922ZM80.3976 57.8899C79.4427 59.4708 78.3554 60.9631 77.151 62.3515L80.1725 64.9727C81.5258 63.4127 82.7478 61.7355 83.8215 59.958L80.3976 57.8899ZM89.7264 56.9723L82.1222 56.924L82.0968 60.9239L89.701 60.9722L89.7264 56.9723ZM91.0204 48.2493C90.4185 51.7187 89.3583 55.0305 87.904 58.1207L91.5233 59.8239C93.1276 56.4147 94.2976 52.7604 94.9615 48.9329L91.0204 48.2493ZM85.72 45.8396L91.8257 50.2166L94.1562 46.9656L88.0506 42.5886L85.72 45.8396ZM85.0091 41.2852C85.0091 42.2153 84.9697 43.1357 84.8925 44.0449L88.8781 44.3833C88.9649 43.3617 89.0091 42.3284 89.0091 41.2852H85.0091ZM84.8924 38.5249C84.9696 39.4343 85.0091 40.3549 85.0091 41.2852H89.0091C89.0091 40.2418 88.9648 39.2083 88.8781 38.1864L84.8924 38.5249ZM91.7465 32.4099L85.72 36.7302L88.0505 39.9811L94.077 35.6608L91.7465 32.4099ZM87.6775 24.4749C89.188 27.5752 90.2993 30.9052 90.945 34.3988L94.8784 33.6718C94.166 29.8175 92.9397 26.1431 91.2734 22.7229L87.6775 24.4749ZM82.1217 25.6457L89.4882 25.5989L89.4627 21.599L82.0963 21.6457L82.1217 25.6457ZM77.1508 20.2187C78.3551 21.607 79.4423 23.0991 80.3971 24.6798L83.8209 22.6116C82.7474 20.8344 81.5254 19.1573 80.1723 17.5975L77.1508 20.2187ZM79.076 11.3115L76.7634 18.278L80.5597 19.5382L82.8723 12.5717L79.076 11.3115ZM71.127 7.20807C74.2234 8.88357 77.0684 10.9663 79.5896 13.3849L82.3586 10.4983C79.5807 7.83355 76.4452 5.53774 73.0306 3.69007L71.127 7.20807ZM67.3409 11.4212L73.2646 7.0596L70.8929 3.83853L64.9693 8.2001L67.3409 11.4212ZM60.125 9.94766C61.9387 10.3672 63.6935 10.9402 65.3753 11.6523L66.9349 7.96892C65.0425 7.16762 63.0676 6.52274 61.0266 6.05058L60.125 9.94766ZM56.4225 1.53624L58.6698 8.60506L62.4818 7.39318L60.2345 0.324359L56.4225 1.53624ZM52.5941 2.53247C54.4472 2.53247 56.269 2.66157 58.0513 2.911L58.6057 -1.0504C56.6403 -1.32546 54.6332 -1.46753 52.5941 -1.46753V2.53247ZM47.6335 2.84474C49.2571 2.63875 50.9127 2.53247 52.5941 2.53247V-1.46753C50.744 -1.46753 48.9202 -1.35058 47.1301 -1.12345L47.6335 2.84474ZM47.0183 8.60526L49.2878 1.46658L45.4758 0.254702L43.2063 7.39338L47.0183 8.60526ZM40.3132 11.6525C41.9949 10.9405 43.7496 10.3674 45.5631 9.94785L44.6615 6.0508C42.6206 6.52298 40.6458 7.16787 38.7535 7.96916L40.3132 11.6525ZM32.2129 6.90451L38.3476 11.4214L40.7192 8.20031L34.5846 3.68344L32.2129 6.90451ZM25.9605 13.0421C28.4665 10.6986 31.2812 8.68217 34.3364 7.06056L32.4611 3.52739C29.0918 5.31571 25.9894 7.53844 23.2283 10.1205L25.9605 13.0421ZM28.925 18.2787L26.4926 10.9512L22.6963 12.2114L25.1287 19.5389L28.925 18.2787ZM25.2919 24.6798C26.2465 23.0994 27.3335 21.6074 28.5376 20.2194L25.5161 17.5983C24.1632 19.1578 22.9414 20.8347 21.868 22.6116L25.2919 24.6798ZM15.7015 25.5957L23.5672 25.6457L23.5926 21.6457L15.7269 21.5958L15.7015 25.5957ZM14.2998 34.0986C14.9531 30.7133 16.0442 27.4841 17.5121 24.4719L13.9163 22.7196C12.297 26.0426 11.093 29.6056 10.3723 33.3407L14.2998 34.0986ZM19.969 36.7307L13.5013 32.0942L11.1708 35.3451L17.6384 39.9816L19.969 36.7307ZM20.6799 41.2852C20.6799 40.3551 20.7193 39.4346 20.7965 38.5254L16.8109 38.187C16.7241 39.2086 16.6799 40.242 16.6799 41.2852H20.6799ZM20.7965 44.0444C20.7193 43.1353 20.6799 42.2151 20.6799 41.2852H16.6799C16.6799 42.3282 16.7241 43.3613 16.8108 44.3827L20.7965 44.0444ZM13.4189 50.5346L19.9689 45.839L17.6384 42.5881L11.0884 47.2836L13.4189 50.5346ZM17.2855 58.1237C15.8729 55.1225 14.8318 51.9123 14.2215 48.5517L10.2859 49.2665C10.9592 52.974 12.108 56.5163 13.6664 59.8272L17.2855 58.1237ZM23.5668 56.924L15.4633 56.9755L15.4887 60.9754L23.5922 60.9239L23.5668 56.924ZM28.5374 62.3509C27.3332 60.9627 26.2461 59.4705 25.2914 57.8899L21.8675 59.958C22.941 61.7352 24.1628 63.4122 25.5158 64.972L28.5374 62.3509ZM26.3663 71.9988L28.9248 64.2915L25.1285 63.0313L22.57 70.7386L26.3663 71.9988ZM33.9639 75.8078C31.0036 74.195 28.2746 72.2094 25.8403 69.9137L23.096 72.8238C25.778 75.3531 28.7858 77.5419 32.0503 79.3203L33.9639 75.8078ZM38.3469 71.1488L31.8213 75.9535L34.1929 79.1746L40.7185 74.3699L38.3469 71.1488ZM45.5634 72.6227C43.7495 72.203 41.9945 71.6299 40.3126 70.9176L38.7528 74.601C40.6454 75.4025 42.6205 76.0475 44.6618 76.5197L45.5634 72.6227ZM49.453 81.6227L47.0186 73.9653L43.2066 75.1772L45.641 82.8345L49.453 81.6227ZM52.5941 80.5362C50.9669 80.5362 49.3639 80.4366 47.7906 80.2435L47.3033 84.2137C49.0379 84.4266 50.8036 84.5362 52.5941 84.5362V80.5362Z" fill="black" mask="url(#path-12-inside-2_7081_1189)"/>
<circle cx="30.3633" cy="30.3633" r="29.3633" transform="matrix(-1 0 0 1 82.9861 10.4695)" stroke="#E31E24" stroke-width="2"/>
</svg>
