<svg width="92" height="98" viewBox="0 0 92 98" fill="none" xmlns="http://www.w3.org/2000/svg">
<path d="M22.9692 64C19.3077 65 11.4854 67.4 9.48828 69C9.82114 70 10.6866 72.1 11.4854 72.5C12.2843 72.9 14.4812 77.6667 15.4798 80L14.9805 97L36.9493 97.5C36.9493 92.5 36.45 83.8077 35.9507 83.5C30.7581 80.3 25.1328 69.1667 22.9692 64Z" fill="white"/>
<path d="M49.9293 64C53.5908 65 61.413 67.4 63.4102 69C63.0773 70 62.2119 72.1 61.413 72.5C60.6141 72.9 58.4172 77.6667 57.4187 80L57.9179 97L35.9491 97.5C35.9491 92.5 36.4484 83.8077 36.9477 83.5C42.1403 80.3 47.7657 69.1667 49.9293 64Z" fill="white"/>
<path d="M36.8407 60C24.3786 60 18.6266 50.4108 18.0278 37.0157C17.9782 35.907 18.8802 35 19.9901 35H52.9205C54.0265 35 54.9259 35.9028 54.8941 37.0083C54.4632 52.0013 49.371 60 36.8407 60Z" fill="white" stroke="black" stroke-width="2" stroke-linecap="round"/>
<rect x="17.9766" y="29" width="36.9476" height="4" rx="2" fill="#E31E24"/>
<rect x="20.9727" y="20" width="30.9561" height="4" rx="2" fill="#E31E24"/>
<path d="M38.234 27H18.9805C16.7713 27 14.9805 28.7909 14.9805 31V31C14.9805 33.2091 16.7713 35 18.9805 35H54.9181C57.1273 35 58.9181 33.2091 58.9181 31V31C58.9181 28.7909 57.1273 27 54.9181 27H46.1993" stroke="#E31E24" stroke-width="2" stroke-linecap="round"/>
<path d="M17.9766 35C18.0738 49.4384 23.762 60 36.8407 60C49.9193 60 54.8946 51.286 54.9242 35" stroke="black" stroke-width="2" stroke-linecap="round"/>
<path d="M49.9319 64C46.9537 67.3012 42.6702 69 36.8162 69C31.3074 69 27.0668 67.1766 23.9688 64" stroke="black" stroke-width="2" stroke-linecap="round"/>
<path d="M28.9609 16V8.98867C28.9609 4.57665 32.5376 1 36.9496 1V1C41.3616 1 44.9383 4.57665 44.9383 8.98867V16" stroke="#E31E24" stroke-width="2" stroke-linecap="round"/>
<path d="M1 97V80.738C1 79.6315 1.11576 78.526 1.37625 77.4505C2.58644 72.454 3.63523 70.8174 8.68475 68.3422L23.0123 63.6711C26.5304 62.2236 27.2227 61.1213 27.9618 59" stroke="black" stroke-width="2" stroke-linecap="round"/>
<path d="M71.8984 97V80.738C71.8984 79.6315 71.7827 78.526 71.5222 77.4505C70.312 72.454 69.2632 70.8174 64.2137 68.3422L49.8862 63.6711C46.368 62.2236 45.6758 61.1213 44.9367 59" stroke="black" stroke-width="2" stroke-linecap="round"/>
<path d="M18.9727 25C18.9727 25 18.9727 23.3893 18.9727 17.0805C18.9727 10.7718 25.3738 5 28.9585 5" stroke="#E31E24" stroke-width="2" stroke-linecap="round"/>
<path d="M53.9258 25C53.9258 25 53.9258 23.3893 53.9258 17.0805C53.9258 10.7718 48.1647 5 44.9385 5" stroke="#E31E24" stroke-width="2" stroke-linecap="round"/>
<path d="M8.98828 69L12.84 74.4915C13.5532 75.4068 14.9798 77.9695 14.9798 80.8983C14.9798 83.8271 14.9798 92.1864 14.9798 96" stroke="black" stroke-width="2" stroke-linecap="round"/>
<path d="M64.9102 69L60.4165 74.4915C59.5844 75.4068 57.9201 77.9695 57.9201 80.8983C57.9201 83.8271 57.9201 92.1864 57.9201 96" stroke="black" stroke-width="2" stroke-linecap="round"/>
<path d="M49.9308 65C46.7759 74.3039 43.6994 78.5338 36.9492 85" stroke="black" stroke-width="2" stroke-linecap="round"/>
<path d="M22.969 64C24.1212 67.1552 25.2637 69.7268 26.5541 72M36.9492 84C34.0591 81.4293 31.7944 79.212 29.9011 76.8889" stroke="black" stroke-width="2" stroke-linecap="round"/>
<path d="M84.8828 24H73.8984" stroke="#E31E24" stroke-width="2" stroke-linecap="round"/>
<path d="M79.8867 28H73.8952" stroke="#E31E24" stroke-width="2" stroke-linecap="round"/>
<path d="M36.9492 84V97" stroke="black" stroke-width="2" stroke-linecap="round"/>
<path d="M56.9219 90H19.9743" stroke="black" stroke-width="2" stroke-linecap="round"/>
<path d="M31.957 8.99292C31.957 6.23541 34.1924 4 36.9499 4C39.7075 4 41.9429 6.23541 41.9429 8.99292V24H31.957V8.99292Z" fill="#E31E24"/>
<path d="M20.9727 17.176C20.9727 13.3903 23.0612 9.6471 26.7811 8.94444C28.9781 8.52945 30.9585 8.77289 30.9585 10.9996C30.9585 15.9996 30.9585 23 30.9585 23H20.9727V17.176Z" fill="#E31E24"/>
<path d="M51.9297 16.772C51.9297 13.3012 50.2201 9.61819 46.7932 9.06757C45.2416 8.81826 43.941 9.20158 43.941 11.1874C43.941 16.1092 43.941 23 43.941 23H51.9297V16.772Z" fill="#E31E24"/>
<path d="M81.7714 38.4115L82.2425 39.2936L81.7714 38.4115ZM75.9894 41.4996L75.5183 40.6175L75.9894 41.4996ZM67.9062 19C67.9062 17.8954 68.8017 17 69.9062 17V15C67.6971 15 65.9062 16.7909 65.9062 19H67.9062ZM67.9062 35V19H65.9062V35H67.9062ZM69.9063 37C68.8017 37 67.9062 36.1046 67.9062 35H65.9062C65.9062 37.2091 67.6971 39 69.9063 39V37ZM73.0454 37H69.9063V39H73.0454V37ZM81.3003 37.5295L75.5183 40.6175L76.4605 42.3817L82.2425 39.2936L81.3003 37.5295ZM87.8723 37H83.4155V39H87.8723V37ZM89.8723 35C89.8723 36.1046 88.9768 37 87.8723 37V39C90.0814 39 91.8723 37.2091 91.8723 35H89.8723ZM89.8723 19V35H91.8723V19H89.8723ZM87.8723 17C88.9768 17 89.8723 17.8954 89.8723 19H91.8723C91.8723 16.7909 90.0814 15 87.8723 15V17ZM69.9062 17H87.8723V15H69.9062V17ZM82.2425 39.2936C82.6034 39.1008 83.0063 39 83.4155 39V37C82.6776 37 81.9512 37.1818 81.3003 37.5295L82.2425 39.2936ZM73.306 39.4071C72.3885 41.398 74.5268 43.4144 76.4605 42.3817L75.5183 40.6175C75.4411 40.6588 75.3843 40.6609 75.3417 40.6539C75.2919 40.6458 75.2356 40.6198 75.1862 40.5732C75.1367 40.5265 75.1075 40.4719 75.0965 40.4226C75.087 40.3806 75.0858 40.3237 75.1224 40.2442L73.306 39.4071ZM73.0454 39C73.2548 39 73.3937 39.217 73.306 39.4071L75.1224 40.2442C75.8208 38.7289 74.7138 37 73.0454 37V39Z" fill="black"/>
</svg>
