<svg width="96" height="96" viewBox="0 0 96 96" fill="none" xmlns="http://www.w3.org/2000/svg">
<g id="Group 1321315649">
<g id="Mask group">
<mask id="mask0_7096_4509" style="mask-type:alpha" maskUnits="userSpaceOnUse" x="0" y="0" width="49" height="96">
<rect id="Rectangle 14067" width="48.8623" height="95.4251" fill="#D9D9D9"/>
</mask>
<g mask="url(#mask0_7096_4509)">
<circle id="Ellipse 925" cx="48.2874" cy="47.7129" r="46.1377" fill="white" stroke="black" stroke-width="2"/>
<circle id="Ellipse 926" cx="48.2874" cy="47.7127" r="39.2395" fill="white" stroke="black" stroke-width="2"/>
<g id="Rectangle 14069">
<mask id="path-4-inside-1_7096_4509" fill="white">
<rect width="7.13775" height="22.0769" rx="1" transform="matrix(0.5 0.866025 0.866025 -0.5 26 56.0386)"/>
</mask>
<rect width="7.13775" height="22.0769" rx="1" transform="matrix(0.5 0.866025 0.866025 -0.5 26 56.0386)" fill="white" stroke="black" stroke-width="4" mask="url(#path-4-inside-1_7096_4509)"/>
</g>
<path id="Line 974" d="M43.4258 45.3359L25 34" stroke="black" stroke-width="2" stroke-linecap="round"/>
<circle id="Ellipse 927" cx="47.1917" cy="47.4673" r="4" fill="white" stroke="black" stroke-width="2"/>
<circle id="Ellipse 930" cx="17" cy="47.4673" r="4" fill="#E31E24" stroke="black" stroke-width="2"/>
<circle id="Ellipse 928" cx="47.1917" cy="17" r="4" fill="#E31E24" stroke="black" stroke-width="2"/>
<circle id="Ellipse 929" cx="47.1917" cy="77.9341" r="4" fill="#E31E24" stroke="black" stroke-width="2"/>
<g id="Group 1321315651">
<circle id="Ellipse 931" cx="20.6945" cy="31.0419" r="1" fill="black" stroke="black" stroke-width="1.4491"/>
<circle id="Ellipse 933" cx="1.72455" cy="1.72455" r="1" transform="matrix(1 0 0 -1 18.97 66.1079)" fill="black" stroke="black" stroke-width="1.4491"/>
<circle id="Ellipse 932" cx="30.467" cy="20.1201" r="1" fill="black" stroke="black" stroke-width="1.4491"/>
<circle id="Ellipse 934" cx="1.72455" cy="1.72455" r="1" transform="matrix(1 0 0 -1 28.7424 77.0303)" fill="black" stroke="black" stroke-width="1.4491"/>
</g>
</g>
</g>
<g id="Mask group_2">
<mask id="mask1_7096_4509" style="mask-type:alpha" maskUnits="userSpaceOnUse" x="48" y="0" width="48" height="96">
<rect id="Rectangle 14066" x="48.8623" width="47.1377" height="95.4251" fill="#D9D9D9"/>
</mask>
<g mask="url(#mask1_7096_4509)">
<g id="Group 1321315647">
<g id="Union">
<mask id="path-15-inside-2_7096_4509" fill="white">
<path fill-rule="evenodd" clip-rule="evenodd" d="M48.9473 95.0906C51.124 95.0906 53.2663 94.9434 55.3648 94.6585L58.1461 85.9101C60.3675 85.3961 62.5169 84.6943 64.5767 83.822L71.852 89.1787C75.4899 87.1591 78.8333 84.6732 81.8015 81.8019L78.9912 73.3363C80.465 71.6374 81.7956 69.8111 82.9645 67.876L91.7302 67.9317C93.4928 64.1864 94.7781 60.172 95.5076 55.9671L88.4693 50.9215C88.5638 49.8087 88.612 48.6827 88.612 47.5454C88.612 46.4083 88.5638 45.2824 88.4693 44.1698L95.4163 39.1896C94.6337 34.9552 93.2866 30.9188 91.456 27.1613L82.9647 27.2152C81.7958 25.2801 80.4651 23.4537 78.9913 21.7547L81.657 13.7247C78.6032 10.7953 75.1568 8.27213 71.4047 6.24185L64.5771 11.269C62.5171 10.3967 60.3675 9.69471 58.1459 9.18075L55.5559 1.03361C53.3963 0.73143 51.19 0.575195 48.9473 0.575195C46.9119 0.575195 44.9066 0.703865 42.9391 0.953513L40.3236 9.18075C38.102 9.69471 35.9524 10.3967 33.8924 11.269L26.8226 6.06352C23.1202 8.02869 19.7103 10.4717 16.675 13.3104L19.4782 21.7547C18.0044 23.4537 16.6737 25.2801 15.5048 27.2152L6.44036 27.1576C4.66119 30.8087 3.33857 34.7231 2.54677 38.8266L10.0002 44.1698C9.9057 45.2824 9.8575 46.4083 9.8575 47.5454C9.8575 48.6827 9.90571 49.8087 10.0002 50.9215L2.4519 56.3327C3.19173 60.4062 4.45372 64.2977 6.16601 67.9354L15.505 67.876C16.6739 69.8111 18.0045 71.6374 19.4783 73.3363L16.5296 82.2189C19.4781 84.9996 22.7842 87.4054 26.3717 89.3598L33.8928 83.822C35.9526 84.6943 38.102 85.3961 40.3234 85.9101L43.1293 94.736C45.0358 94.9701 46.9775 95.0906 48.9473 95.0906Z"/>
</mask>
<path d="M55.3648 94.6585L55.6339 96.6403L56.8875 96.4701L57.2708 95.2644L55.3648 94.6585ZM58.1461 85.9101L57.6953 83.9615L56.5853 84.2183L56.2401 85.3041L58.1461 85.9101ZM64.5767 83.822L65.7626 82.2115L64.8455 81.5363L63.7969 81.9804L64.5767 83.822ZM71.852 89.1787L70.6662 90.7893L71.7001 91.5506L72.8227 90.9274L71.852 89.1787ZM81.8015 81.8019L83.192 83.2394L84.0958 82.3651L83.6996 81.1718L81.8015 81.8019ZM78.9912 73.3363L77.4805 72.0257L76.7344 72.8858L77.0931 73.9664L78.9912 73.3363ZM82.9645 67.876L82.9772 65.8761L81.8404 65.8689L81.2526 66.842L82.9645 67.876ZM91.7302 67.9317L91.7175 69.9317L92.9956 69.9398L93.5399 68.7833L91.7302 67.9317ZM95.5076 55.9671L97.4781 56.3089L97.6926 55.0727L96.6728 54.3416L95.5076 55.9671ZM88.4693 50.9215L86.4765 50.7522L86.3803 51.8847L87.304 52.5469L88.4693 50.9215ZM88.4693 44.1698L87.3041 42.5443L86.3803 43.2065L86.4765 44.339L88.4693 44.1698ZM95.4163 39.1896L96.5816 40.815L97.6139 40.075L97.383 38.8261L95.4163 39.1896ZM91.456 27.1613L93.2539 26.2853L92.7024 25.1533L91.4433 25.1613L91.456 27.1613ZM82.9647 27.2152L81.2528 28.2493L81.8406 29.2224L82.9774 29.2152L82.9647 27.2152ZM78.9913 21.7547L77.0932 21.1246L76.7345 22.2052L77.4806 23.0653L78.9913 21.7547ZM81.657 13.7247L83.5551 14.3548L83.9531 13.1558L83.0415 12.2813L81.657 13.7247ZM71.4047 6.24185L72.3565 4.48285L71.2406 3.87904L70.2189 4.63132L71.4047 6.24185ZM64.5771 11.269L63.7972 13.1106L64.8459 13.5547L65.7629 12.8795L64.5771 11.269ZM58.1459 9.18075L56.2399 9.78669L56.5851 10.8725L57.6951 11.1293L58.1459 9.18075ZM55.5559 1.03361L57.4619 0.42767L57.0803 -0.772562L55.833 -0.947093L55.5559 1.03361ZM42.9391 0.953513L42.6874 -1.03058L41.4201 -0.869788L41.0331 0.347573L42.9391 0.953513ZM40.3236 9.18075L40.7744 11.1293L41.8844 10.8725L42.2296 9.78669L40.3236 9.18075ZM33.8924 11.269L32.7066 12.8795L33.6236 13.5547L34.6723 13.1106L33.8924 11.269ZM26.8226 6.06352L28.0084 4.45298L26.9957 3.70735L25.8849 4.29695L26.8226 6.06352ZM16.675 13.3104L15.3089 11.8496L14.3732 12.7246L14.7768 13.9405L16.675 13.3104ZM19.4782 21.7547L20.9889 23.0653L21.735 22.2052L21.3763 21.1246L19.4782 21.7547ZM15.5048 27.2152L15.4921 29.2152L16.6289 29.2224L17.2167 28.2493L15.5048 27.2152ZM6.44036 27.1576L6.45306 25.1577L5.19401 25.1497L4.64246 26.2815L6.44036 27.1576ZM2.54677 38.8266L0.582991 38.4476L0.340259 39.7056L1.3815 40.452L2.54677 38.8266ZM10.0002 44.1698L11.993 44.339L12.0891 43.2065L11.1654 42.5443L10.0002 44.1698ZM10.0002 50.9215L11.1655 52.5469L12.0892 51.8847L11.993 50.7522L10.0002 50.9215ZM2.4519 56.3327L1.28663 54.7072L0.257908 55.4447L0.484096 56.6901L2.4519 56.3327ZM6.16601 67.9354L4.35645 68.7871L4.90074 69.9434L6.17871 69.9353L6.16601 67.9354ZM15.505 67.876L17.2169 66.842L16.6291 65.8689L15.4923 65.8761L15.505 67.876ZM19.4783 73.3363L21.3764 73.9664L21.7351 72.8858L20.989 72.0257L19.4783 73.3363ZM16.5296 82.2189L14.6315 81.5888L14.2297 82.799L15.1574 83.6739L16.5296 82.2189ZM26.3717 89.3598L25.4149 91.116L26.5326 91.7249L27.5575 90.9703L26.3717 89.3598ZM33.8928 83.822L34.6726 81.9804L33.624 81.5363L32.7069 82.2115L33.8928 83.822ZM40.3234 85.9101L42.2294 85.3041L41.8842 84.2183L40.7742 83.9615L40.3234 85.9101ZM43.1293 94.736L41.2233 95.3419L41.612 96.5647L42.8856 96.7211L43.1293 94.736ZM55.0958 92.6767C53.0861 92.9495 51.0337 93.0906 48.9473 93.0906V97.0906C51.2142 97.0906 53.4464 96.9373 55.6339 96.6403L55.0958 92.6767ZM56.2401 85.3041L53.4588 94.0526L57.2708 95.2644L60.0521 86.516L56.2401 85.3041ZM63.7969 81.9804C61.8424 82.808 59.803 83.4739 57.6953 83.9615L58.5969 87.8586C60.932 87.3184 63.1914 86.5806 65.3566 85.6637L63.7969 81.9804ZM73.0378 87.5682L65.7626 82.2115L63.3909 85.4326L70.6662 90.7893L73.0378 87.5682ZM80.4109 80.3644C77.5675 83.1151 74.365 85.4961 70.8812 87.4301L72.8227 90.9274C76.6148 88.8221 80.0992 86.2314 83.192 83.2394L80.4109 80.3644ZM77.0931 73.9664L79.9033 82.432L83.6996 81.1718L80.8894 72.7062L77.0931 73.9664ZM81.2526 66.842C80.1431 68.6787 78.8798 70.4126 77.4805 72.0257L80.502 74.6468C82.0501 72.8622 83.4482 70.9434 84.6764 68.9101L81.2526 66.842ZM91.743 65.9318L82.9772 65.8761L82.9518 69.876L91.7175 69.9317L91.743 65.9318ZM93.537 55.6252C92.8385 59.6511 91.6081 63.4943 89.9206 67.0801L93.5399 68.7833C95.3775 64.8785 96.7176 60.6929 97.4781 56.3089L93.537 55.6252ZM87.304 52.5469L94.3423 57.5925L96.6728 54.3416L89.6346 49.296L87.304 52.5469ZM86.612 47.5454C86.612 48.6261 86.5662 49.6957 86.4765 50.7522L90.4621 51.0907C90.5614 49.9217 90.612 48.7392 90.612 47.5454H86.612ZM86.4765 44.339C86.5662 45.3954 86.612 46.4649 86.612 47.5454H90.612C90.612 46.3518 90.5614 45.1694 90.4622 44.0006L86.4765 44.339ZM94.2511 37.5641L87.3041 42.5443L89.6346 45.7952L96.5816 40.815L94.2511 37.5641ZM89.658 28.0372C91.4107 31.6348 92.7004 35.4991 93.4497 39.5531L97.383 38.8261C96.5671 34.4113 95.1625 30.2027 93.2539 26.2853L89.658 28.0372ZM82.9774 29.2152L91.4687 29.1612L91.4433 25.1613L82.952 25.2153L82.9774 29.2152ZM77.4806 23.0653C78.88 24.6784 80.1433 26.4124 81.2528 28.2493L84.6767 26.1812C83.4484 24.1477 82.0503 22.2289 80.5021 20.4442L77.4806 23.0653ZM79.7588 13.0946L77.0932 21.1246L80.8895 22.3848L83.5551 14.3548L79.7588 13.0946ZM70.4529 8.00086C74.046 9.94505 77.347 12.3617 80.2725 15.168L83.0415 12.2813C79.8594 9.22893 76.2677 6.59921 72.3565 4.48285L70.4529 8.00086ZM65.7629 12.8795L72.5905 7.85239L70.2189 4.63132L63.3913 9.65843L65.7629 12.8795ZM57.6951 11.1293C59.803 11.6169 61.8426 12.283 63.7972 13.1106L65.3569 9.42727C63.1917 8.51037 60.932 7.77248 58.5967 7.23222L57.6951 11.1293ZM53.6499 1.63955L56.2399 9.78669L60.0519 8.57481L57.4619 0.42767L53.6499 1.63955ZM48.9473 2.5752C51.0971 2.5752 53.2107 2.72494 55.2787 3.01431L55.833 -0.947093C53.5819 -1.26208 51.283 -1.4248 48.9473 -1.4248V2.5752ZM43.1909 2.93761C45.0751 2.69853 46.9963 2.5752 48.9473 2.5752V-1.4248C46.8276 -1.4248 44.7382 -1.2908 42.6874 -1.03058L43.1909 2.93761ZM42.2296 9.78669L44.8451 1.55945L41.0331 0.347573L38.4176 8.57481L42.2296 9.78669ZM34.6723 13.1106C36.6269 12.283 38.6665 11.6169 40.7744 11.1293L39.8728 7.23222C37.5375 7.77248 35.2778 8.51037 33.1126 9.42727L34.6723 13.1106ZM25.6368 7.67405L32.7066 12.8795L35.0782 9.65843L28.0084 4.45298L25.6368 7.67405ZM18.0411 14.7711C20.9488 12.0517 24.215 9.7119 27.7603 7.83009L25.8849 4.29695C22.0255 6.34548 18.4718 8.89167 15.3089 11.8496L18.0411 14.7711ZM21.3763 21.1246L18.5731 12.6802L14.7768 13.9405L17.58 22.3848L21.3763 21.1246ZM17.2167 28.2493C18.3262 26.4124 19.5895 24.6784 20.9889 23.0653L17.9674 20.4442C16.4192 22.2289 15.0211 24.1477 13.7928 26.1812L17.2167 28.2493ZM6.42765 29.1576L15.4921 29.2152L15.5175 25.2153L6.45306 25.1577L6.42765 29.1576ZM4.51054 39.2055C5.2686 35.2769 6.53479 31.5294 8.23825 28.0338L4.64246 26.2815C2.7876 30.0879 1.40854 34.1693 0.582991 38.4476L4.51054 39.2055ZM11.1654 42.5443L3.71204 37.2011L1.3815 40.452L8.8349 45.7952L11.1654 42.5443ZM11.8575 47.5454C11.8575 46.4649 11.9033 45.3954 11.993 44.339L8.00734 44.0006C7.9081 45.1695 7.8575 46.3518 7.8575 47.5454H11.8575ZM11.993 50.7522C11.9033 49.6957 11.8575 48.6261 11.8575 47.5454H7.8575C7.8575 48.7392 7.90811 49.9217 8.00737 51.0907L11.993 50.7522ZM3.61717 57.9582L11.1655 52.5469L8.83493 49.296L1.28663 54.7072L3.61717 57.9582ZM7.97556 67.0836C6.33618 63.6008 5.12803 59.8753 4.41971 55.9753L0.484096 56.6901C1.25543 60.937 2.57125 64.9946 4.35645 68.7871L7.97556 67.0836ZM15.4923 65.8761L6.15331 65.9354L6.17871 69.9353L15.5177 69.876L15.4923 65.8761ZM20.989 72.0257C19.5897 70.4126 18.3264 68.6787 17.2169 66.842L13.7931 68.9101C15.0213 70.9434 16.4194 72.8622 17.9675 74.6468L20.989 72.0257ZM18.4278 82.849L21.3764 73.9664L17.5801 72.7062L14.6315 81.5888L18.4278 82.849ZM27.3285 87.6035C23.8931 85.7319 20.7264 83.4278 17.9018 80.7639L15.1574 83.6739C18.2298 86.5715 21.6753 89.0788 25.4149 91.116L27.3285 87.6035ZM32.7069 82.2115L25.1859 87.7492L27.5575 90.9703L35.0786 85.4326L32.7069 82.2115ZM40.7742 83.9615C38.6665 83.4739 36.6271 82.808 34.6726 81.9804L33.1129 85.6637C35.2781 86.5806 37.5375 87.3184 39.8726 87.8586L40.7742 83.9615ZM45.0353 94.1301L42.2294 85.3041L38.4174 86.516L41.2233 95.3419L45.0353 94.1301ZM48.9473 93.0906C47.0591 93.0906 45.1989 92.9751 43.373 92.7509L42.8856 96.7211C44.8728 96.9651 46.8958 97.0906 48.9473 97.0906V93.0906Z" fill="black" mask="url(#path-15-inside-2_7096_4509)"/>
</g>
<circle id="Ellipse 923" cx="49.1497" cy="47.4255" r="30.3293" stroke="black" stroke-width="2"/>
<circle id="Ellipse 924" cx="49.1496" cy="47.4252" r="25.1557" stroke="black" stroke-width="2"/>
</g>
</g>
</g>
<path id="Vector 746" d="M48.575 2L48.295 92.9996" stroke="black" stroke-width="2" stroke-linecap="round"/>
</g>
</svg>
