<svg width="74" height="98" viewBox="0 0 74 98" fill="none" xmlns="http://www.w3.org/2000/svg">
<path d="M50.3432 64C54.0047 65 61.8269 67.4 63.8241 69C71.9089 70 72.7076 81.6 71.9087 82C71.1099 82.4 73.4103 94.6667 72.4117 97H58.3318L36.363 97.5C36.363 92.5 22.4126 75.8077 22.9119 75.5C28.1045 72.3 48.1796 69.1667 50.3432 64Z" fill="white"/>
<path d="M23.3859 64C19.7244 65 11.9088 66.4 9.91162 68C7.41516 70 5.91162 69 1.9119 76.5C1.49149 77.2883 0.413234 94.6667 1.41182 97H15.3972L37.3661 97.5C37.3661 92.5 36.8668 83.8077 36.3675 83.5C31.1748 80.3 25.5495 69.1667 23.3859 64Z" fill="white"/>
<path d="M36.4745 60C48.9365 60 54.6886 50.4108 55.2874 37.0157C55.337 35.907 54.4349 35 53.3251 35H20.3947C19.2887 35 18.3893 35.9028 18.4211 37.0083C18.852 52.0013 23.9442 60 36.4745 60Z" fill="white" stroke="black" stroke-width="2" stroke-linecap="round"/>
<path d="M55.3386 35C55.2414 49.4384 49.5532 60 36.4745 60C23.3959 60 18.4206 51.286 18.391 35" stroke="black" stroke-width="2" stroke-linecap="round"/>
<path d="M44.3542 16V8.98867C44.3542 4.57665 40.7776 1 36.3656 1V1C31.9536 1 28.3769 4.57665 28.3769 8.98867V16" stroke="#E31E24" stroke-width="2" stroke-linecap="round"/>
<path d="M72.3152 97V80.738C72.3152 79.6315 72.1994 78.526 71.9389 77.4505C70.7287 72.454 69.68 70.8174 64.6304 68.3422L50.3029 63.6711C46.7848 62.2236 46.0925 61.1213 45.3534 59" stroke="black" stroke-width="2" stroke-linecap="round"/>
<path d="M1.41675 97V80.738C1.41675 79.6315 1.53251 78.526 1.79299 77.4505C3.00319 72.454 4.05198 70.8174 9.1015 68.3422L23.429 63.6711C26.9471 62.2236 27.6394 61.1213 28.3785 59" stroke="black" stroke-width="2" stroke-linecap="round"/>
<path d="M54.3425 25C54.3425 25 54.3425 23.3893 54.3425 17.0805C54.3425 10.7718 47.9414 5 44.3567 5" stroke="#E31E24" stroke-width="2" stroke-linecap="round"/>
<path d="M19.3894 25C19.3894 25 19.3894 23.3893 19.3894 17.0805C19.3894 10.7718 25.1505 5 28.3767 5" stroke="#E31E24" stroke-width="2" stroke-linecap="round"/>
<path d="M58.4116 88.5C58.4116 91.4288 58.4116 92.1863 58.4116 95.9999" stroke="black" stroke-width="2" stroke-linecap="round"/>
<path d="M17.4116 88.5C17.4116 91.4288 17.4116 92.1863 17.4116 95.9999" stroke="black" stroke-width="2" stroke-linecap="round"/>
<path d="M35.0812 27H54.3347C56.5439 27 58.3347 28.7909 58.3347 31V31C58.3347 33.2091 56.5439 35 54.3347 35H18.397C16.1879 35 14.397 33.2091 14.397 31V31C14.397 28.7909 16.1879 27 18.397 27H27.1158" stroke="#E31E24" stroke-width="2" stroke-linecap="round"/>
<path d="M24.7894 62.6222L21.778 65.6336C21.5483 65.8634 21.4445 66.1904 21.4997 66.5106L23.6239 78.8311C23.7532 79.5812 24.6397 79.9175 25.234 79.4421L35.4185 71.2945C35.9243 70.8898 35.9178 70.1184 35.4052 69.7223L26.1079 62.5381C25.7098 62.2304 25.1451 62.2665 24.7894 62.6222Z" fill="white" stroke="black" stroke-width="2" stroke-linecap="round"/>
<path d="M48.0339 62.6222L51.0452 65.6336C51.275 65.8634 51.3788 66.1904 51.3236 66.5106L49.1994 78.8311C49.07 79.5812 48.1835 79.9175 47.5892 79.4421L37.4047 71.2945C36.8989 70.8898 36.9054 70.1184 37.418 69.7223L46.7153 62.5381C47.1134 62.2304 47.6781 62.2665 48.0339 62.6222Z" fill="white" stroke="black" stroke-width="2" stroke-linecap="round"/>
<path d="M34.115 80.0547L31.8666 76.6821C31.6022 76.2855 31.6545 75.7574 31.9916 75.4203L35.7719 71.6399C36.1352 71.2766 36.7147 71.2477 37.1123 71.5731L41.2429 74.9527C41.6271 75.267 41.7226 75.8155 41.4672 76.2411L39.2032 80.0145C39.0224 80.3157 38.6969 80.5 38.3457 80.5H34.947C34.6127 80.5 34.3005 80.3329 34.115 80.0547Z" fill="#E31E24" stroke="black" stroke-width="2" stroke-linecap="round"/>
<mask id="mask0_7081_1074" style="mask-type:alpha" maskUnits="userSpaceOnUse" x="21" y="76" width="31" height="21">
<rect width="30" height="21" transform="matrix(1 0 0 -1 21.0002 97)" fill="#D9D9D9"/>
</mask>
<g mask="url(#mask0_7081_1074)">
<path d="M34.416 81.8364L31.4457 99.7432C31.4234 99.8779 31.4289 100.016 31.4618 100.148L35.776 117.487C36.021 118.472 37.4078 118.508 37.7031 117.537L42.3463 102.268C42.3895 102.126 42.4005 101.976 42.3786 101.83L39.3963 81.8523C39.3231 81.3625 38.9025 81 38.4072 81H35.4025C34.9134 81 34.496 81.3538 34.416 81.8364Z" fill="#E31E24" stroke="black" stroke-width="2" stroke-linecap="round"/>
</g>
<rect x="23.0002" y="38" width="11" height="9" rx="1" stroke="black" stroke-width="2"/>
<rect x="38.0002" y="38" width="12" height="9" rx="1" stroke="black" stroke-width="2"/>
<path d="M37.0002 41C36.2192 41 36.0172 41 35.0002 41" stroke="black" stroke-width="2" stroke-linecap="round"/>
</svg>
