<svg width="81" height="72" viewBox="0 0 81 72" fill="none" xmlns="http://www.w3.org/2000/svg">
<g id="Group 1321315635">
<g id="Rectangle 14051">
<mask id="path-1-inside-1_7080_425" fill="white">
<rect width="80" height="41" rx="1"/>
</mask>
<rect width="80" height="41" rx="1" stroke="black" stroke-width="4" mask="url(#path-1-inside-1_7080_425)"/>
</g>
<g id="Group 1321315634">
<path id="Rectangle 14062" d="M14.2034 60.8289C14.0972 61.4404 14.568 62 15.1887 62H23.8113C24.432 62 24.9028 61.4404 24.7966 60.8289L23.4071 52.8289C23.3239 52.3498 22.9081 52 22.4219 52H16.5781C16.0919 52 15.6761 52.3498 15.5929 52.8289L14.2034 60.8289Z" fill="#E31E24"/>
<path id="Rectangle 14063" d="M34.2034 60.8289C34.0972 61.4404 34.568 62 35.1887 62H43.8113C44.432 62 44.9028 61.4404 44.7966 60.8289L43.4071 52.8289C43.3239 52.3498 42.9081 52 42.4219 52H36.5781C36.0919 52 35.6761 52.3498 35.5929 52.8289L34.2034 60.8289Z" fill="#E31E24"/>
<path id="Rectangle 14064" d="M55.2034 60.8289C55.0972 61.4404 55.568 62 56.1887 62H64.8113C65.432 62 65.9028 61.4404 65.7966 60.8289L64.4071 52.8289C64.3239 52.3498 63.9081 52 63.4219 52H57.5781C57.0919 52 56.6761 52.3498 56.5929 52.8289L55.2034 60.8289Z" fill="#E31E24"/>
<g id="Rectangle 14052">
<mask id="path-5-inside-2_7080_425" fill="white">
<rect x="9" y="39" width="22" height="10" rx="1"/>
</mask>
<rect x="9" y="39" width="22" height="10" rx="1" stroke="black" stroke-width="4" mask="url(#path-5-inside-2_7080_425)"/>
</g>
<path id="Rectangle 14055" d="M15.3305 48L15.3305 48L23.6695 48L22.5116 52L16.4884 52L15.3305 48Z" stroke="black" stroke-width="2"/>
<path id="Rectangle 14056" d="M35.3305 48L35.3305 48L43.6695 48L42.5116 52L36.4884 52L35.3305 48Z" stroke="black" stroke-width="2"/>
<path id="Rectangle 14057" d="M56.3305 48L56.3305 48L64.6695 48L63.5116 52L57.4884 52L56.3305 48Z" stroke="black" stroke-width="2"/>
<g id="Rectangle 14053">
<mask id="path-9-inside-3_7080_425" fill="white">
<rect x="29" y="39" width="22" height="10" rx="1"/>
</mask>
<rect x="29" y="39" width="22" height="10" rx="1" stroke="black" stroke-width="4" mask="url(#path-9-inside-3_7080_425)"/>
</g>
<g id="Rectangle 14058">
<mask id="path-10-inside-4_7080_425" fill="white">
<rect x="29" y="7" width="22" height="10" rx="1"/>
</mask>
<rect x="29" y="7" width="22" height="10" rx="1" stroke="black" stroke-width="4" mask="url(#path-10-inside-4_7080_425)"/>
</g>
<g id="Rectangle 14054">
<mask id="path-11-inside-5_7080_425" fill="white">
<rect x="49" y="39" width="22" height="10" rx="1"/>
</mask>
<rect x="49" y="39" width="22" height="10" rx="1" stroke="black" stroke-width="4" mask="url(#path-11-inside-5_7080_425)"/>
</g>
</g>
<g id="Subtract">
<mask id="path-12-inside-6_7080_425" fill="white">
<path fill-rule="evenodd" clip-rule="evenodd" d="M7.01403 15.9399C6.91261 16.5091 7.37507 17 7.9532 17H25.0608C25.6389 17 26.1014 16.5091 25.9999 15.9399C25.1957 11.4265 21.2515 8 16.507 8C11.7625 8 7.81827 11.4265 7.01403 15.9399Z"/>
</mask>
<path d="M25.9999 15.9399L24.031 16.2908L25.9999 15.9399ZM7.9532 19H25.0608V15H7.9532V19ZM16.507 10C20.2654 10 23.3938 12.7148 24.031 16.2908L27.9689 15.589C26.9976 10.1382 22.2376 6 16.507 6V10ZM8.98301 16.2908C9.62021 12.7148 12.7486 10 16.507 10V6C10.7763 6 6.01632 10.1382 5.04504 15.589L8.98301 16.2908ZM25.0608 19C26.7252 19 28.3157 17.5352 27.9689 15.589L24.031 16.2908C23.887 15.4829 24.5526 15 25.0608 15V19ZM7.9532 15C8.46138 15 9.12696 15.4829 8.98301 16.2908L5.04504 15.589C4.69826 17.5352 6.28875 19 7.9532 19V15Z" fill="black" mask="url(#path-12-inside-6_7080_425)"/>
</g>
<path id="Line 961" d="M60 32H72" stroke="black" stroke-width="2" stroke-linecap="round"/>
<path id="Line 962" d="M60 27H72" stroke="black" stroke-width="2" stroke-linecap="round"/>
<path id="Line 963" d="M60 22H72" stroke="black" stroke-width="2" stroke-linecap="round"/>
<path id="Line 964" d="M15.3853 15.5L17.8853 12" stroke="black" stroke-width="2" stroke-linecap="round"/>
<rect id="Rectangle 14053_2" x="0.5" y="30.5" width="12" height="1" rx="0.5" fill="white" stroke="black"/>
<rect id="Rectangle 14054_2" x="0.5" y="34.5" width="7" height="1" rx="0.5" fill="white" stroke="black"/>
<circle id="Ellipse 902" cx="46.5" cy="27.5" r="3.5" stroke="black" stroke-width="2"/>
<circle id="Ellipse 903" cx="32.5" cy="27.5" r="3.5" stroke="black" stroke-width="2"/>
<path id="Rectangle 14052_2" d="M2.4277 62L79.5723 62L76.2996 71L5.70043 71L2.4277 62Z" stroke="black" stroke-width="2"/>
<rect id="Rectangle 13842" x="65.5" y="65.5" width="12" height="1" rx="0.5" fill="white" stroke="black"/>
</g>
</svg>
