<svg width="82" height="107" viewBox="0 0 82 107" fill="none" xmlns="http://www.w3.org/2000/svg">
<g id="Group 1321315642">
<g id="Group 1321315640">
<path id="Vector 735" d="M67.1503 37.0824C63.701 15.4129 39.942 7.07599 26.2731 3.50965C27.4549 8.14319 32.2231 16.2303 28.0264 28.4825C21.6363 47.1381 21.8309 50.8859 25.3029 58.5557C28.807 66.2963 37.0378 69.9466 45.9822 68.7195C52.0763 67.8834 70.9573 60.999 67.1503 37.0824Z" stroke="black" stroke-width="2" stroke-linecap="round"/>
<path id="Vector 736" d="M26.2759 3.68457C29.4976 4.93335 38.0764 13.4625 46.6185 37.5889" stroke="black" stroke-width="2" stroke-linecap="round"/>
<path id="Vector 741" d="M36.1489 26.5684L42.9669 29.3213" stroke="black" stroke-width="2" stroke-linecap="round"/>
</g>
<g id="Group 1321315641">
<path id="Vector 737" d="M67.2932 84.0437C87.1837 66.7516 80.947 36.8006 76.1088 20.3477C72.1307 24.5065 66.8627 34.5753 51.8104 37.968C28.8913 43.1339 25.2023 45.7072 19.5561 54.1656C13.8577 62.7022 15.2434 73.5603 22.0289 82.0737C26.652 87.8742 45.3401 103.129 67.2932 84.0437Z" fill="white" stroke="black" stroke-width="2" stroke-linecap="round"/>
<path id="Vector 738" d="M76 21.3477C73.0396 33.0827 62.2448 59.2707 42.7493 70.1426C18.3798 83.7324 3.10831 89.7247 3 105.348" stroke="black" stroke-width="2" stroke-linecap="round"/>
<path id="Vector 739" d="M54 44.3477L57 58.3477" stroke="black" stroke-width="2" stroke-linecap="round"/>
<path id="Vector 740" d="M43 71.0005L54 76.0005" stroke="black" stroke-width="2" stroke-linecap="round"/>
</g>
</g>
</svg>
