<svg width="65" height="82" viewBox="0 0 65 82" fill="none" xmlns="http://www.w3.org/2000/svg">
<mask id="path-1-inside-1_6855_17705" fill="white">
<rect width="64.9079" height="82" rx="1"/>
</mask>
<rect width="64.9079" height="82" rx="1" fill="white" stroke="black" stroke-width="4" mask="url(#path-1-inside-1_6855_17705)"/>
<path d="M40.7142 39.6816C41.8696 38.2885 44.007 38.2885 45.1624 39.6816C45.9131 40.5868 47.1377 40.9466 48.2587 40.5913C49.9828 40.045 51.7798 41.2035 51.9994 42.9987C52.1422 44.1663 52.9781 45.1336 54.1134 45.4417C55.8596 45.9158 56.7456 47.8615 55.9606 49.4918C55.4501 50.5521 55.6313 51.8181 56.4197 52.6917C57.6327 54.0357 57.3294 56.1517 55.7868 57.0994C54.7843 57.7153 54.2546 58.8792 54.4461 60.0401C54.7405 61.8247 53.3428 63.4428 51.5344 63.405C50.3586 63.3803 49.2845 64.072 48.8189 65.152C48.1028 66.8133 46.0522 67.4174 44.5518 66.4068C43.5764 65.7498 42.3001 65.7498 41.3247 66.4068C39.8243 67.4174 37.7737 66.8133 37.0576 65.152C36.5921 64.072 35.518 63.3803 34.3421 63.405C32.5338 63.4428 31.1361 61.8247 31.4304 60.0401C31.6219 58.8792 31.0922 57.7153 30.0898 57.0994C28.5472 56.1517 28.2438 54.0357 29.4568 52.6917C30.2453 51.8181 30.4265 50.5521 29.916 49.4918C29.131 47.8615 30.0169 45.9158 31.7632 45.4417C32.8984 45.1336 33.7343 44.1663 33.8772 42.9987C34.0968 41.2035 35.8938 40.045 37.6178 40.5913C38.7389 40.9466 39.9635 40.5868 40.7142 39.6816Z" fill="#E31E24"/>
<ellipse cx="8.49527" cy="8.49269" rx="8.49527" ry="8.49269" transform="matrix(0.626232 0.779637 -0.778769 0.627311 43.9375 41)" fill="white"/>
<ellipse cx="4.73674" cy="4.7353" rx="4.73674" ry="4.7353" transform="matrix(0.626232 0.779637 -0.778769 0.627311 43.3672 46.2891)" fill="#E31E24"/>
<path d="M35.9492 61.5V72L42.9393 68.5L49.9294 72V60.5" stroke="#E31E24" stroke-width="2"/>
<line x1="14.9805" y1="18" x2="49.9309" y2="18" stroke="black" stroke-width="2"/>
<line x1="14.9805" y1="29" x2="49.9309" y2="29" stroke="black" stroke-width="2"/>
<line x1="14.9805" y1="40" x2="26.9635" y2="40" stroke="black" stroke-width="2"/>
</svg>
