<svg width="92" height="94" viewBox="0 0 92 94" fill="none" xmlns="http://www.w3.org/2000/svg">
<path d="M52.2959 50.0809L52.2735 51.0807L52.2959 50.0809C51.8247 50.0703 51.3648 50.2266 50.9974 50.522L25.1194 71.3377L4.99065 46.3137L37.1991 20.406L61.2306 50.2819L52.2959 50.0809Z" fill="white" stroke="black" stroke-width="2"/>
<path d="M3.23565 50.5109C3.04791 50.8641 3.08875 51.2952 3.33948 51.607L19.6012 71.8235C19.8519 72.1352 20.2643 72.2675 20.6495 72.1598L23.2211 71.4412C23.9125 71.248 24.1811 70.4107 23.7311 69.8513L6.15095 47.9956C5.70098 47.4362 4.82563 47.5192 4.48871 48.1531L3.23565 50.5109Z" fill="white" stroke="black" stroke-width="2"/>
<mask id="path-3-inside-1_6855_17659" fill="white">
<rect x="28" width="8" height="42" rx="1"/>
</mask>
<rect x="28" width="8" height="42" rx="1" fill="white" stroke="black" stroke-width="4" mask="url(#path-3-inside-1_6855_17659)"/>
<rect x="79.5" y="81.5" width="12" height="1" rx="0.5" fill="white" stroke="black"/>
<rect x="72.5" y="86.5" width="19" height="1" rx="0.5" fill="white" stroke="black"/>
<circle cx="32.6024" cy="44.721" r="8.68126" transform="rotate(51.1877 32.6024 44.721)" fill="white" stroke="black" stroke-width="2"/>
<circle cx="32.5941" cy="44.7164" r="3.14911" transform="rotate(51.1877 32.5941 44.7164)" fill="white" stroke="black" stroke-width="2"/>
<path d="M84.4387 54.1985C76.618 42.1581 65.1816 39.5145 53.1201 39.0589C52.2753 39.027 51.7928 39.9987 52.3184 40.6608L60.542 51.0202C60.6827 51.1974 60.8837 51.3221 61.1036 51.3755C67.784 52.9965 69.304 55.7012 70.3398 61.5905C70.46 62.2737 71.2139 62.6477 71.8221 62.3142L84.0806 55.5932C84.5812 55.3187 84.7497 54.6772 84.4387 54.1985Z" fill="#E31E24"/>
<path d="M54 71.0906L91 50.6932V93H54L54 71.0906Z" stroke="black" stroke-width="2"/>
<path d="M40.9836 62.8137C38.8976 64.2065 37.8364 67.9473 39.1942 71.041C40.552 74.1347 44.5372 74.955 47.0002 73.4966C51.6267 69.7984 48.5471 68.666 53.3527 64.0121C53.9133 63.4692 53.7238 62.5039 52.9716 62.296C46.5801 60.529 42.9048 61.5311 40.9836 62.8137Z" fill="#E31E24"/>
</svg>
