<svg width="26" height="23" viewBox="0 0 26 23" fill="none" xmlns="http://www.w3.org/2000/svg">
<path d="M16 6.83333V2C16 1.44772 15.5523 1 15 1H2C1.44772 1 1 1.44772 1 2V21C1 21.5523 1.44772 22 2 22H15C15.5523 22 16 21.5523 16 21V17.7222" stroke="black" stroke-width="2"/>
<path d="M19.9287 7.29274C20.3191 6.90232 20.9522 6.90252 21.3428 7.29274L25.707 11.657C26.0976 12.0475 26.0976 12.6805 25.707 13.0711L21.3428 17.4353C20.9522 17.8256 20.3191 17.8257 19.9287 17.4353C19.5383 17.0449 19.5385 16.4118 19.9287 16.0213L22.5859 13.364H9C8.44772 13.364 8 12.9163 8 12.364C8 11.8117 8.44772 11.364 9 11.364H22.5859L19.9287 8.70681C19.5385 8.31626 19.5383 7.68317 19.9287 7.29274Z" fill="#E31E24"/>
</svg>
