<svg width="31" height="30" viewBox="0 0 31 30" fill="none" xmlns="http://www.w3.org/2000/svg">
<g id="pdf">
<rect id="Rectangle 2540" width="31" height="30" fill="#333333"/>
<g id="PDF">
<path d="M6.90494 10.9847V9.7207H8.53694V10.9847H6.90494ZM6.90494 16.6647V15.4007H8.53694V16.6647H6.90494ZM10.2329 13.6727V12.7127H11.6889V13.6727H10.2329ZM11.6889 12.7127H10.2329C10.2329 12.158 10.0783 11.7314 9.76894 11.4327C9.47027 11.134 9.05427 10.9847 8.52094 10.9847V9.7207C9.15027 9.7207 9.6996 9.8487 10.1689 10.1047C10.6489 10.35 11.0223 10.702 11.2889 11.1607C11.5556 11.6087 11.6889 12.126 11.6889 12.7127ZM11.6889 13.6567C11.6889 14.254 11.5556 14.7767 11.2889 15.2247C11.0223 15.6727 10.6489 16.0247 10.1689 16.2807C9.6996 16.5367 9.15027 16.6647 8.52094 16.6647V15.4007C9.05427 15.4007 9.47027 15.246 9.76894 14.9367C10.0783 14.6274 10.2329 14.2007 10.2329 13.6567H11.6889ZM5.96094 21.0007V9.7207H7.41694V21.0007H5.96094Z" fill="white"/>
<path d="M17.4368 18.0087V12.7127H18.8928V18.0087H17.4368ZM14.1568 21.0007V19.7367H15.7408V21.0007H14.1568ZM14.1568 10.9847V9.7207H15.7408V10.9847H14.1568ZM14.1568 10.9847V9.7207H15.7408V10.9847H14.1568ZM18.8928 12.7127H17.4368C17.4368 12.158 17.2875 11.7314 16.9888 11.4327C16.6901 11.134 16.2741 10.9847 15.7408 10.9847V9.7207C16.3595 9.7207 16.9035 9.8487 17.3728 10.1047C17.8528 10.35 18.2261 10.702 18.4928 11.1607C18.7595 11.6087 18.8928 12.126 18.8928 12.7127ZM18.8928 17.9927C18.8928 18.59 18.7595 19.1127 18.4928 19.5607C18.2261 20.0087 17.8528 20.3607 17.3728 20.6167C16.9035 20.8727 16.3595 21.0007 15.7408 21.0007V19.7367C16.2741 19.7367 16.6901 19.5874 16.9888 19.2887C17.2875 18.9794 17.4368 18.5474 17.4368 17.9927H18.8928ZM13.1328 21.0007V9.7207H14.5888V21.0007H13.1328Z" fill="white"/>
<path d="M21.7826 16.0247V14.7287H25.0146V16.0247H21.7826ZM20.7266 9.7207H22.1826V21.0007H20.7266V9.7207ZM21.7026 9.7207H25.8146V10.9847H21.7026V9.7207Z" fill="white"/>
</g>
</g>
</svg>
