<svg width="150" height="24" viewBox="0 0 150 24" fill="none" xmlns="http://www.w3.org/2000/svg">
<g id="LOGO" clip-path="url(#clip0_6842_13652)">
<g id="Layer_x0020_1">
<path id="Vector" d="M150 23.9992H141.467L134.125 8.70576V23.9992H127.742V0H136.242L143.617 15.2602V0H150V23.9992Z" fill="black"/>
<path id="Vector_2" d="M106 23.9992V0H124.984V5.92517H112.912V8.97071H124.355V14.9291H112.912V18.0408H125.116V23.9992H106Z" fill="black"/>
<path id="Vector_3" d="M91.4276 0V18.0408H102.606V23.9992H84.5156V0H91.4276Z" fill="black"/>
<path id="Vector_4" d="M73.7394 23.9992L68.944 15.558H66.0995V23.9992H59.1875V0H69.1091C75.393 0 80.0894 1.52277 80.0894 7.71288C80.0894 11.1557 78.3365 13.1747 75.8231 14.3335L81.5117 23.9992H73.7394ZM69.9028 5.59446H66.0995V10.3279H69.9028C71.9204 10.3279 72.8796 9.33506 72.8796 7.97783C72.8796 6.6206 71.9204 5.59446 69.9028 5.59446Z" fill="black"/>
<path id="Vector_5" d="M31.2109 23.9992L39.9091 0H47.4829L56.1811 23.9992H48.6735C46.5849 17.1636 47.0574 18.7053 43.6796 7.61348C40.3037 18.4142 40.6072 17.3847 38.5863 23.9992H31.2109Z" fill="black"/>
<path id="Vector_6" d="M17.2312 23.9992H11.0464L6.2177 7.4812V23.9992H0V0H10.1204L14.1883 14.9291L18.1901 0H28.2111V23.9992H21.9934V7.38179L17.2312 23.9992Z" fill="#E31E24"/>
</g>
</g>
<defs>
<clipPath id="clip0_6842_13652">
<rect width="150" height="23.9992" fill="white"/>
</clipPath>
</defs>
</svg>
