<svg width="150" height="24" viewBox="0 0 150 24" fill="none" xmlns="http://www.w3.org/2000/svg">
<g id="MARLEN">
<path id="Vector" d="M150.004 23.9992H141.471L134.129 8.70592V23.9992H127.746V0H136.246L143.621 15.2602V0H150.004V23.9992Z" fill="white"/>
<path id="Vector_2" d="M106 23.9992V0H124.984V5.92533H112.912V8.97074H124.355V14.9292H112.912V18.0408H125.116V23.9992H106Z" fill="white"/>
<path id="Vector_3" d="M91.4317 0V18.0408H102.61V23.9992H84.5195V0H91.4317Z" fill="white"/>
<path id="Vector_4" d="M73.7395 23.9992L68.944 15.5581H66.0997V23.9992H59.1875V0H69.1093C75.3932 0 80.0895 1.52271 80.0895 7.71285C80.0895 11.1555 78.3366 13.1747 75.8231 14.3333L81.5116 23.9992H73.7395ZM69.9031 5.5943H66.0997V10.3279H69.9031C71.9205 10.3279 72.8796 9.33487 72.8796 7.97767C72.8796 6.62048 71.9205 5.5943 69.9031 5.5943Z" fill="white"/>
<path id="Vector_5" d="M31.2148 23.9992L39.913 0H47.4866L56.1848 23.9992H48.6773L47.4536 19.9938H39.8138L38.5901 23.9992H31.2148ZM43.6833 7.61355L39.8138 19.9938H47.4536L43.6833 7.61355Z" fill="white"/>
<path id="Vector_6" d="M17.2309 23.9992H11.0463L6.21768 7.48114V23.9992H0V0H10.1203L14.1882 14.9292L18.19 0H28.2111V23.9992H21.9934V7.38183L17.2309 23.9992Z" fill="#E31E24"/>
</g>
</svg>
