<svg width="0" height="0" class="hidden">
  <symbol xmlns="http://www.w3.org/2000/svg" viewBox="0 0 9 16" id="ic_arr_hor">
    <path d="M8 1L1.70711 7.29289C1.31658 7.68342 1.31658 8.31658 1.70711 8.70711L8 15" stroke="currentColor" stroke-width="2" stroke-linecap="round" fill="none"></path>
  </symbol>
  <symbol xmlns="http://www.w3.org/2000/svg" viewBox="0 0 12 8" id="ic_arr_ver">
    <path id="Vector" d="M6.46824 7.33309L11.8083 1.99294C11.9319 1.86943 12 1.70455 12 1.52875C12 1.35294 11.9319 1.18807 11.8083 1.06456L11.4151 0.671291C11.1589 0.41539 10.7425 0.41539 10.4867 0.671291L6.00249 5.15555L1.51326 0.666315C1.38965 0.542804 1.22487 0.474609 1.04916 0.474609C0.873261 0.474609 0.708482 0.542804 0.584775 0.666315L0.191706 1.05958C0.0680971 1.18319 0 1.34797 0 1.52377C0 1.69957 0.0680971 1.86445 0.191706 1.98796L5.53664 7.33309C5.66064 7.45689 5.8262 7.52489 6.00219 7.5245C6.17888 7.52489 6.34434 7.45689 6.46824 7.33309Z" fill="currentColor"></path>
  </symbol>
  <symbol xmlns="http://www.w3.org/2000/svg" viewBox="0 0 44 16" id="ic_arrow_hor">
    <path d="M43.7071 8.70711C44.0976 8.31659 44.0976 7.68342 43.7071 7.2929L37.3431 0.928935C36.9526 0.538411 36.3195 0.538411 35.9289 0.928935C35.5384 1.31946 35.5384 1.95262 35.9289 2.34315L41.5858 8L35.9289 13.6569C35.5384 14.0474 35.5384 14.6805 35.9289 15.0711C36.3195 15.4616 36.9526 15.4616 37.3431 15.0711L43.7071 8.70711ZM-8.74227e-08 9L43 9L43 7L8.74227e-08 7L-8.74227e-08 9Z" fill="currentColor"></path>
  </symbol>
  <symbol xmlns="http://www.w3.org/2000/svg" viewBox="0 0 17 17" id="ic_arrow_hor2">
    <path fill-rule="evenodd" clip-rule="evenodd" d="M7.47362 0.338078L0.328831 7.68381C-0.10961 8.13458 -0.10961 8.86542 0.328831 9.31619L7.47362 16.6619C7.91206 17.1127 8.62291 17.1127 9.06135 16.6619C9.49979 16.2112 9.49979 15.4803 9.06135 15.0295L3.83312 9.65427H17V7.34573L3.83312 7.34573L9.06135 1.97046C9.49979 1.51969 9.49979 0.788849 9.06135 0.338078C8.62291 -0.112693 7.91206 -0.112693 7.47362 0.338078Z" fill="currentColor"></path>
  </symbol>
  <symbol xmlns="http://www.w3.org/2000/svg" viewBox="0 0 24 20" id="ic_callback">
    <rect x="1" y="1" width="12" height="18" rx="1" stroke="currentColor" stroke-width="2" fill="none"></rect>
    <rect x="6" y="14" width="2" height="2" fill="currentColor"></rect>
    <path d="M16.7109 3.07031C24.031 3.07031 24.8443 15.1224 17.4235 15.1224" stroke="currentColor" stroke-linecap="round" fill="none"></path>
    <path d="M17.5234 6.85547C20.0179 6.85547 20.2951 10.9625 17.7662 10.9625" stroke="currentColor" stroke-linecap="round" fill="none"></path>
  </symbol>
  <symbol xmlns="http://www.w3.org/2000/svg" viewBox="0 0 24 31" id="ic_callback2">
    <rect x="1" y="9" width="13" height="21" rx="1" stroke="currentColor" stroke-width="2" fill="none"></rect>
    <rect x="6" y="25" width="3" height="2" fill="currentColor"></rect>
    <path d="M12 3.53906C18.0021 -0.845254 25.9807 8.18718 19.0783 13.2291" stroke="currentColor" stroke-width="2" stroke-linecap="round" fill="none"></path>
    <path d="M13.7656 5.96094C16.7667 3.76878 20.756 8.285 17.3048 10.806" stroke="currentColor" stroke-width="2" stroke-linecap="round" fill="none"></path>
  </symbol>
  <symbol xmlns="http://www.w3.org/2000/svg" viewBox="0 0 12 9" id="ic_check">
    <path d="M5.31409 8.62328L11.63 2.19459C12.1233 1.69251 12.1233 0.878641 11.63 0.37656C11.1374 -0.12552 10.3365 -0.12552 9.84389 0.37656L5.31409 8.62328ZM5.31409 8.62328C5.06776 8.87464 4.74439 9 4.42101 9C4.09763 9 3.77426 8.87464 3.52794 8.62328L0.369957 5.40894C-0.123319 4.90685 -0.123319 4.09298 0.369957 3.5909C0.862602 3.08882 1.66346 3.08882 2.15611 3.5909L5.31409 8.62328ZM11.2732 0.726744L11.2734 0.726973C11.5755 1.03453 11.5755 1.53662 11.2734 1.84418L4.95742 8.27287L4.95697 8.27332C4.80787 8.42548 4.61463 8.5 4.42101 8.5C4.22739 8.5 4.03416 8.42548 3.88505 8.27332L3.8846 8.27287L0.726624 5.05852C0.424459 4.75096 0.424459 4.24887 0.726624 3.94132L0.726848 3.94109C1.02349 3.63876 1.50257 3.63876 1.79922 3.94109L1.79949 3.94137L4.06439 6.24605L4.42104 6.60896L4.77766 6.24602L10.2005 0.726994L10.2008 0.726744C10.4974 0.424419 10.9765 0.424418 11.2732 0.726744Z" fill="currentColor" stroke="currentColor"></path>
  </symbol>
  <symbol xmlns="http://www.w3.org/2000/svg" viewBox="0 0 25 25" id="ic_close">
    <rect x="25" y="23.3359" width="2" height="33" transform="rotate(135 25 23.3359)" fill="currentColor"></rect>
    <rect width="2" height="33" transform="matrix(-0.707107 -0.707107 -0.707107 0.707107 25 1.66406)" fill="currentColor"></rect>
  </symbol>
  <symbol xmlns="http://www.w3.org/2000/svg" viewBox="0 0 74 52" id="ic_consult">
    <rect x="30" y="4" width="42" height="33" fill="#E31E24"></rect>
    <rect x="29.5" y="3.5" width="42.2941" height="33.2353" rx="2.5" stroke="currentColor" stroke-width="3" fill="none"></rect>
    <path d="M29.8125 4.7168L49.3354 21.6933C50.088 22.3476 51.2076 22.3476 51.9602 21.6933L71.4831 4.7168" stroke="currentColor" stroke-width="3" fill="none"></path>
    <path d="M17.3623 2.12109C12.7715 1.97476 9.30024 1.95178 4.84672 2.10468C3.95966 2.13513 3.19797 2.75311 3.00885 3.62031C0.124836 16.845 3.60058 27.375 11.1843 35.8552C18.8208 44.3944 28.6717 51.5486 47.7803 49.7091C48.7617 49.6146 49.5107 48.797 49.5442 47.8115L49.9442 36.0344C49.9766 35.0791 49.3286 34.2344 48.3975 34.0183L36.5657 31.2723C35.7723 31.0881 34.9462 31.4027 34.4951 32.0809C33.7563 33.1916 32.69 34.8705 32.3068 35.8552C31.7159 37.3738 18.4537 32.3219 15.8391 21.7236C15.6845 21.097 15.8909 20.4389 16.3638 19.9997C19.7188 16.8838 23.0242 15.7337 23.4604 14.3644C23.8379 13.1793 20.4135 5.9699 19.0733 3.2227C18.7524 2.56486 18.0939 2.14441 17.3623 2.12109Z" fill="#E31E24" stroke="currentColor" stroke-width="3"></path>
  </symbol>
  <symbol xmlns="http://www.w3.org/2000/svg" viewBox="0 0 16 16" id="ic_copy">
    <rect x="0.5" y="0.5" width="10" height="10" fill="white" stroke="currentColor"></rect>
    <rect x="5.5" y="5.5" width="10" height="10" fill="white" stroke="currentColor"></rect>
  </symbol>
  <symbol xmlns="http://www.w3.org/2000/svg" viewBox="0 0 20 16" id="ic_email">
    <path d="M0 2C0 0.895432 0.89543 0 2 0H18C19.1046 0 20 0.895431 20 2V14C20 15.1046 19.1046 16 18 16H2C0.895432 16 0 15.1046 0 14V2ZM3.51859 2L10 7.67123L16.4814 2H3.51859ZM18 3.32877L10.6585 9.75258C10.2815 10.0825 9.71852 10.0825 9.3415 9.75258L2 3.32877V14H18V3.32877Z" fill="currentColor"></path>
  </symbol>
  <symbol xmlns="http://www.w3.org/2000/svg" viewBox="0 0 21 25" id="ic_file">
    <path d="M15.9014 3.63872C16.8605 4.19247 17.5604 5.06756 17.8699 6.10285C18.1795 7.13816 18.0645 8.21284 17.5414 9.12463L12.6891 17.5349C12.388 18.0564 12.5924 18.7402 13.1448 19.0591L13.1624 19.0693C13.7148 19.3882 14.4105 19.2209 14.7103 18.7018L19.5576 10.2887C19.9709 9.57272 20.2238 8.79258 20.3064 7.97103C20.3868 7.17663 20.3097 6.37667 20.0769 5.59114C19.8428 4.80799 19.4631 4.07985 18.9499 3.42637C18.4196 2.75038 17.7647 2.18576 17.0089 1.74944L16.9938 1.74074C16.2331 1.3015 15.4166 1.01663 14.5636 0.893926C13.7385 0.774769 12.9167 0.812349 12.1189 0.999734C11.3222 1.19092 10.5884 1.52268 9.94057 1.98947C9.26905 2.47418 8.72125 3.08089 8.30539 3.79538L0.799631 16.8247C0.148353 17.947 -0.00398648 19.2719 0.379763 20.5555C0.754135 21.8148 1.58352 22.8658 2.71586 23.5196C3.85073 24.1748 5.17948 24.3666 6.45836 24.065C7.76322 23.7532 8.83951 22.9617 9.49104 21.8332L13.8777 14.2352C14.3677 13.3865 14.507 12.4554 14.2984 11.5701C13.8282 9.56641 11.7648 8.53634 9.96087 8.96464C8.99487 9.19399 8.2193 9.85885 7.73615 10.6957L5.96299 13.7843C5.66188 14.3058 5.86631 14.9897 6.41868 15.3086L6.43876 15.3202C6.99114 15.6391 7.68556 15.4742 7.98668 14.9527L8.00173 14.9266C8.14957 14.6705 9.7539 11.8859 9.7662 11.8646C10.6189 10.3877 12.7165 11.5671 11.8501 13.0678L7.46736 20.6648L7.40164 20.7786C7.10053 21.3002 6.55132 21.7006 5.89888 21.8739C5.2451 22.0496 4.53735 21.9824 3.95691 21.6947C3.91035 21.671 3.86631 21.6487 3.82112 21.6226C3.23862 21.2863 2.81193 20.7207 2.618 20.0303C2.43227 19.3604 2.4928 18.6526 2.79027 18.0909L2.85046 17.9867L10.3407 4.96101L10.3969 4.86381C10.935 3.99548 11.7982 3.38753 12.8335 3.15399C13.8673 2.92901 14.9585 3.0975 15.9014 3.63872Z" fill="currentColor"></path>
  </symbol>
  <symbol xmlns="http://www.w3.org/2000/svg" viewBox="0 0 19 27" id="ic_location">
    <path d="M9.5 1C4.81313 1 1 4.74238 1 9.34229C1 15.1239 9.50836 25 9.50836 25C9.50836 25 18 14.8396 18 9.34229C18 4.74238 14.187 1 9.5 1ZM12.0646 11.7849C11.3575 12.4788 10.4288 12.8258 9.5 12.8258C8.57134 12.8258 7.64239 12.4788 6.93552 11.7849C5.52134 10.3971 5.52134 8.13892 6.93552 6.75098C7.6203 6.07861 8.53119 5.7083 9.5 5.7083C10.4688 5.7083 11.3796 6.07876 12.0646 6.75098C13.4788 8.13892 13.4788 10.3971 12.0646 11.7849Z" stroke="currentColor" stroke-width="2" fill="none"></path>
  </symbol>
  <symbol xmlns="http://www.w3.org/2000/svg" viewBox="0 0 19 16" id="ic_menu">
    <rect width="19" height="2" fill="currentColor"></rect>
    <rect y="7" width="19" height="2" fill="currentColor"></rect>
    <rect y="14" width="19" height="2" fill="currentColor"></rect>
  </symbol>
  <symbol xmlns="http://www.w3.org/2000/svg" viewBox="0 0 15 23" id="ic_phone">
    <rect x="1" y="1" width="13" height="21" rx="1" stroke="currentColor" stroke-width="2" fill="none"></rect>
    <rect x="6" y="17" width="3" height="2" fill="currentColor"></rect>
  </symbol>
  <symbol xmlns="http://www.w3.org/2000/svg" viewBox="0 0 24 24" id="ic_phone2">
    <path d="M3.83221 4H8.32216L9.76937 7.61803L7.44449 9.16795C7.16629 9.35342 6.99919 9.66565 6.99919 10C7.00173 10.0936 6.99919 10.001 6.99919 10.001L6.99919 10.002L6.9992 10.0043L6.99923 10.0093L6.99938 10.0217C6.99952 10.0309 6.99977 10.0421 7.0002 10.0552C7.00104 10.0814 7.00257 10.1153 7.00531 10.1564C7.01078 10.2385 7.0211 10.3494 7.04049 10.4852C7.07925 10.7565 7.15447 11.1281 7.30051 11.5662C7.59374 12.4459 8.16992 13.5849 9.29208 14.7071C10.4142 15.8293 11.5533 16.4054 12.433 16.6987C12.8711 16.8447 13.2427 16.9199 13.514 16.9587C13.6497 16.9781 13.7607 16.9884 13.8428 16.9939C13.8839 16.9966 13.9178 16.9981 13.944 16.999C13.9571 16.9994 13.9683 16.9997 13.9775 16.9998L13.9899 17L13.9949 17L13.9971 17L13.9982 17C13.9982 17 14.1098 16.9939 13.9992 17C14.378 17 14.7242 16.786 14.8936 16.4472L15.5633 15.1078L19.9992 15.8471V20.167C17.8881 20.4723 12.1866 20.7732 7.7063 16.2929C3.226 11.8126 3.52691 6.1111 3.83221 4ZM9.07284 10.4861L10.8788 9.28213C11.6657 8.75751 11.9776 7.75338 11.6263 6.87525L10.1791 3.25722C9.87538 2.4979 9.13996 2 8.32216 2H3.77996C2.87145 2 2.01628 2.63116 1.86713 3.6169C1.52782 5.8595 1.06597 12.481 6.29208 17.7071C11.5182 22.9332 18.1397 22.4714 20.3823 22.1321C21.368 21.9829 21.9992 21.1277 21.9992 20.2192V15.8471C21.9992 14.8694 21.2924 14.0351 20.328 13.8743L15.8921 13.135C15.026 12.9907 14.1671 13.4281 13.7745 14.2134L13.428 14.9064C13.3191 14.8796 13.1975 14.8453 13.0654 14.8013C12.4451 14.5946 11.5841 14.1707 10.7063 13.2929C9.82846 12.4151 9.40464 11.5541 9.19787 10.9338C9.142 10.7662 9.10178 10.6154 9.07284 10.4861Z" fill="currentColor"></path>
  </symbol>
  <symbol xmlns="http://www.w3.org/2000/svg" viewBox="0 0 23 22" id="ic_search">
    <circle cx="9.69231" cy="9.69231" r="8.69231" stroke="currentColor" stroke-width="2" fill="none"></circle>
    <line x1="16.8634" y1="16.2538" x2="21.7095" y2="21.1" stroke="currentColor" stroke-width="2" fill="none"></line>
  </symbol>
  <symbol xmlns="http://www.w3.org/2000/svg" viewBox="0 0 23 23" id="ic_whatsapp">
    <path d="M6.04096 18.9681L6.87356 19.4545C8.27764 20.2734 9.87459 20.7033 11.5 20.7C13.3196 20.7 15.0983 20.1604 16.6112 19.1495C18.1242 18.1386 19.3034 16.7018 19.9997 15.0207C20.696 13.3396 20.8782 11.4898 20.5232 9.70516C20.1682 7.92054 19.292 6.28126 18.0054 4.99461C16.7187 3.70797 15.0795 2.83176 13.2948 2.47677C11.5102 2.12179 9.6604 2.30398 7.97932 3.00031C6.29824 3.69663 4.8614 4.87582 3.85049 6.38875C2.83958 7.90168 2.30001 9.68041 2.30001 11.5C2.30001 13.1514 2.73356 14.7349 3.54661 16.1276L4.03191 16.9602L3.28096 19.7213L6.04096 18.9681ZM0.00461539 23L1.55941 17.2868C0.534924 15.5306 -0.00332423 13.5332 1.54471e-05 11.5C1.54471e-05 5.14855 5.14856 0 11.5 0C17.8515 0 23 5.14855 23 11.5C23 17.8514 17.8515 23 11.5 23C9.4677 23.0033 7.47117 22.4654 5.71551 21.4417L0.00461539 23ZM7.34966 6.1042C7.50376 6.0927 7.65901 6.0927 7.81311 6.0996C7.87521 6.1042 7.93731 6.1111 7.99941 6.118C8.18226 6.1387 8.38351 6.25025 8.45136 6.40435C8.79406 7.18175 9.12756 7.9649 9.44956 8.75034C9.52086 8.92514 9.47831 9.14939 9.34261 9.36789C9.24928 9.51564 9.14833 9.65844 9.04016 9.79569C8.91021 9.96244 8.63076 10.2683 8.63076 10.2683C8.63076 10.2683 8.51691 10.404 8.56061 10.5731C8.57671 10.6375 8.62961 10.7306 8.67791 10.8088L8.74576 10.9181C9.04016 11.4091 9.43576 11.9071 9.91876 12.3763C10.0568 12.5097 10.1913 12.6465 10.3362 12.7742C10.8744 13.2491 11.4839 13.6367 12.1417 13.9242L12.1475 13.9265C12.2452 13.969 12.2947 13.992 12.4373 14.053C12.5086 14.0829 12.5822 14.1093 12.6569 14.1289C12.7342 14.1486 12.8155 14.1449 12.8906 14.1182C12.9658 14.0916 13.0313 14.0433 13.079 13.9794C13.9116 12.9708 13.9875 12.9053 13.9944 12.9053V12.9076C14.0522 12.8536 14.1209 12.8127 14.1959 12.7875C14.2709 12.7623 14.3504 12.7535 14.4291 12.7615C14.4981 12.7661 14.5682 12.7788 14.6326 12.8075C15.2433 13.087 16.2426 13.5228 16.2426 13.5228L16.9119 13.823C17.0246 13.877 17.127 14.0047 17.1304 14.1277C17.135 14.2048 17.1419 14.329 17.1155 14.5567C17.0787 14.8545 16.989 15.2122 16.8993 15.3996C16.8378 15.5276 16.7563 15.6448 16.6578 15.7469C16.5417 15.8688 16.4147 15.9796 16.2783 16.0781C16.2311 16.1136 16.1831 16.1481 16.1345 16.1816C15.9915 16.2724 15.8445 16.3568 15.6941 16.4346C15.398 16.5919 15.0709 16.6822 14.7361 16.6991C14.5234 16.7106 14.3106 16.7267 14.0967 16.7152C14.0875 16.7152 13.4435 16.6152 13.4435 16.6152C11.8085 16.1851 10.2964 15.3795 9.02751 14.2623C8.76761 14.0334 8.52726 13.7873 8.28116 13.5424C7.25766 12.5246 6.48486 11.4264 6.01566 10.3891C5.77551 9.87998 5.64578 9.32581 5.63501 8.76299C5.63027 8.06477 5.85851 7.38491 6.28361 6.831C6.36756 6.7229 6.44691 6.6102 6.58376 6.48025C6.72981 6.34225 6.82181 6.26865 6.92186 6.21805C7.05489 6.15138 7.2 6.11227 7.34851 6.10305L7.34966 6.1042Z" fill="currentColor"></path>
  </symbol>
  <symbol xmlns="http://www.w3.org/2000/svg" viewBox="0 0 23 22" id="ic_zoom">
    <circle cx="9.69231" cy="9.69231" r="8.69231" stroke="currentColor" stroke-width="2" fill="none"></circle>
    <line x1="16.7071" y1="16.0995" x2="21.7071" y2="21.0995" stroke="currentColor" stroke-width="2" fill="none"></line>
    <path d="M14.498 8.75586H10.7432V4.99609C10.7432 4.44434 10.2988 4 9.74707 4C9.19531 4 8.75097 4.44434 8.75097 4.99609V8.75586H4.99609C4.44434 8.75586 4 9.2002 4 9.75195C4 10.3037 4.44434 10.748 4.99609 10.748H8.75097V14.5029C8.75097 15.0547 9.19531 15.499 9.74707 15.499C10.2988 15.499 10.7432 15.0547 10.7432 14.5029V10.748H14.498C15.0498 10.748 15.4941 10.3037 15.4941 9.75195C15.499 9.2002 15.0498 8.75586 14.498 8.75586Z" fill="currentColor"></path>
  </symbol>
</svg>